<svg width="99" height="99" viewBox="0 0 99 99" fill="none" xmlns="http://www.w3.org/2000/svg">
<circle cx="49.3106" cy="49.3106" r="49.3106" fill="url(#paint0_linear)"/>
<path d="M32.305 27.97L32.753 29.734L34.461 29.314V37H36.589V27.13H35.119L32.305 27.97ZM39.1352 32.03L40.3812 32.856C40.6146 32.7533 40.8666 32.6693 41.1372 32.604C41.4172 32.5293 41.7112 32.492 42.0192 32.492C42.5512 32.492 42.9712 32.6087 43.2792 32.842C43.5966 33.0753 43.7552 33.4067 43.7552 33.836C43.7552 34.284 43.6059 34.6247 43.3072 34.858C43.0179 35.0913 42.6212 35.208 42.1172 35.208C41.6786 35.208 41.2726 35.1147 40.8992 34.928C40.5259 34.7413 40.1526 34.48 39.7792 34.144L38.4772 35.698C38.9532 36.1553 39.4852 36.5147 40.0732 36.776C40.6612 37.0373 41.3519 37.168 42.1452 37.168C42.7052 37.168 43.2139 37.0887 43.6712 36.93C44.1379 36.7713 44.5299 36.5473 44.8472 36.258C45.1739 35.9593 45.4259 35.6 45.6032 35.18C45.7806 34.76 45.8692 34.2887 45.8692 33.766C45.8692 33.206 45.7806 32.73 45.6032 32.338C45.4259 31.9367 45.1832 31.61 44.8752 31.358C44.5672 31.106 44.2032 30.9193 43.7832 30.798C43.3726 30.6767 42.9246 30.616 42.4392 30.616C42.1686 30.616 41.9352 30.6347 41.7392 30.672C41.5432 30.7 41.3472 30.7373 41.1512 30.784L41.2632 29.09H45.4352V27.2H39.4152L39.1352 32.03ZM56.1576 32.086C56.1576 31.3767 56.0549 30.714 55.8496 30.098C55.6443 29.482 55.3503 28.9453 54.9676 28.488C54.5943 28.0307 54.1369 27.676 53.5956 27.424C53.0636 27.1627 52.4709 27.032 51.8176 27.032C51.1643 27.032 50.5669 27.1627 50.0256 27.424C49.4936 27.6853 49.0363 28.0447 48.6536 28.502C48.2709 28.9593 47.9723 29.5007 47.7576 30.126C47.5523 30.742 47.4496 31.4047 47.4496 32.114C47.4496 32.8327 47.5523 33.5 47.7576 34.116C47.9629 34.7227 48.2523 35.2547 48.6256 35.712C49.0083 36.1693 49.4656 36.5287 49.9976 36.79C50.5389 37.042 51.1363 37.168 51.7896 37.168C52.4429 37.168 53.0356 37.0373 53.5676 36.776C54.1089 36.5147 54.5709 36.1553 54.9536 35.698C55.3363 35.2407 55.6303 34.704 55.8356 34.088C56.0503 33.472 56.1576 32.8047 56.1576 32.086ZM53.9456 32.114C53.9456 32.562 53.8943 32.9773 53.7916 33.36C53.6983 33.7333 53.5583 34.06 53.3716 34.34C53.1849 34.62 52.9609 34.8393 52.6996 34.998C52.4383 35.1473 52.1443 35.222 51.8176 35.222C51.4909 35.222 51.1923 35.1427 50.9216 34.984C50.6603 34.8253 50.4363 34.606 50.2496 34.326C50.0629 34.046 49.9183 33.7147 49.8156 33.332C49.7129 32.9493 49.6616 32.534 49.6616 32.086C49.6616 31.638 49.7083 31.2227 49.8016 30.84C49.9043 30.4573 50.0489 30.1307 50.2356 29.86C50.4223 29.58 50.6463 29.3653 50.9076 29.216C51.1689 29.0573 51.4629 28.978 51.7896 28.978C52.1163 28.978 52.4103 29.0573 52.6716 29.216C52.9423 29.3747 53.1709 29.594 53.3576 29.874C53.5443 30.154 53.6889 30.4853 53.7916 30.868C53.8943 31.2507 53.9456 31.666 53.9456 32.114ZM67.0141 37L62.8421 31.358L66.8321 27.2H64.2281L60.2521 31.484V27.2H58.0961V37H60.2521V34.004L61.3861 32.828L64.4241 37H67.0141ZM32.0343 52.418L30.6623 51.032C30.2796 51.3867 29.8923 51.6667 29.5003 51.872C29.1176 52.0773 28.6463 52.18 28.0863 52.18C27.6663 52.18 27.2789 52.1007 26.9243 51.942C26.5789 51.774 26.2803 51.55 26.0283 51.27C25.7856 50.99 25.5943 50.6633 25.4543 50.29C25.3143 49.9167 25.2443 49.52 25.2443 49.1V49.072C25.2443 48.652 25.3143 48.26 25.4543 47.896C25.5943 47.5227 25.7903 47.196 26.0423 46.916C26.2943 46.636 26.5929 46.4167 26.9383 46.258C27.2929 46.0993 27.6756 46.02 28.0863 46.02C28.5809 46.02 29.0243 46.118 29.4163 46.314C29.8176 46.51 30.2096 46.7807 30.5923 47.126L31.9643 45.544C31.7403 45.32 31.4976 45.1147 31.2363 44.928C30.9749 44.7413 30.6903 44.5827 30.3823 44.452C30.0743 44.3213 29.7289 44.2187 29.3463 44.144C28.9729 44.0693 28.5576 44.032 28.1003 44.032C27.3443 44.032 26.6536 44.1673 26.0283 44.438C25.4029 44.6993 24.8663 45.0633 24.4183 45.53C23.9703 45.9873 23.6203 46.524 23.3683 47.14C23.1163 47.7467 22.9903 48.4 22.9903 49.1V49.128C22.9903 49.828 23.1163 50.486 23.3683 51.102C23.6203 51.718 23.9703 52.2547 24.4183 52.712C24.8663 53.16 25.3983 53.5147 26.0143 53.776C26.6303 54.0373 27.2976 54.168 28.0163 54.168C28.4923 54.168 28.9216 54.126 29.3043 54.042C29.6869 53.9673 30.0369 53.8553 30.3543 53.706C30.6809 53.5473 30.9796 53.3607 31.2503 53.146C31.5209 52.9313 31.7823 52.6887 32.0343 52.418ZM43.7422 49.1V49.072C43.7422 48.372 43.6115 47.7187 43.3502 47.112C43.0982 46.496 42.7389 45.964 42.2722 45.516C41.8149 45.0587 41.2689 44.6993 40.6342 44.438C39.9995 44.1673 39.3042 44.032 38.5482 44.032C37.7922 44.032 37.0922 44.1673 36.4482 44.438C35.8135 44.6993 35.2629 45.0633 34.7962 45.53C34.3389 45.9873 33.9795 46.524 33.7182 47.14C33.4569 47.7467 33.3262 48.4 33.3262 49.1V49.128C33.3262 49.828 33.4522 50.486 33.7042 51.102C33.9655 51.7087 34.3249 52.2407 34.7822 52.698C35.2489 53.146 35.7995 53.5053 36.4342 53.776C37.0689 54.0373 37.7642 54.168 38.5202 54.168C39.2762 54.168 39.9715 54.0373 40.6062 53.776C41.2502 53.5053 41.8009 53.1413 42.2582 52.684C42.7249 52.2173 43.0889 51.6807 43.3502 51.074C43.6115 50.458 43.7422 49.8 43.7422 49.1ZM41.4882 49.128C41.4882 49.548 41.4135 49.9447 41.2642 50.318C41.1242 50.682 40.9235 51.004 40.6622 51.284C40.4102 51.564 40.1022 51.7833 39.7382 51.942C39.3742 52.1007 38.9775 52.18 38.5482 52.18C38.1095 52.18 37.7082 52.1007 37.3442 51.942C36.9895 51.774 36.6769 51.55 36.4062 51.27C36.1449 50.99 35.9395 50.6633 35.7902 50.29C35.6502 49.9167 35.5802 49.52 35.5802 49.1V49.072C35.5802 48.652 35.6502 48.26 35.7902 47.896C35.9395 47.5227 36.1402 47.196 36.3922 46.916C36.6535 46.636 36.9615 46.4167 37.3162 46.258C37.6802 46.0993 38.0815 46.02 38.5202 46.02C38.9495 46.02 39.3462 46.104 39.7102 46.272C40.0742 46.4307 40.3869 46.65 40.6482 46.93C40.9189 47.21 41.1242 47.5367 41.2642 47.91C41.4135 48.2833 41.4882 48.68 41.4882 49.1V49.128ZM53.4107 47.616V47.588C53.4107 47.084 53.3221 46.6267 53.1447 46.216C52.9767 45.796 52.7294 45.4367 52.4027 45.138C52.0854 44.8393 51.6934 44.6107 51.2267 44.452C50.7694 44.284 50.2467 44.2 49.6587 44.2H45.6547V54H47.8107V51.06H49.4487C49.9994 51.06 50.5127 50.99 50.9887 50.85C51.4741 50.7007 51.8941 50.4813 52.2487 50.192C52.6127 49.9027 52.8974 49.5433 53.1027 49.114C53.3081 48.6847 53.4107 48.1853 53.4107 47.616ZM51.2267 47.658C51.2267 48.078 51.0774 48.4327 50.7787 48.722C50.4801 49.002 50.0601 49.142 49.5187 49.142H47.8107V46.146H49.4767C50.0181 46.146 50.4427 46.272 50.7507 46.524C51.0681 46.776 51.2267 47.1447 51.2267 47.63V47.658ZM57.2603 54V44.2H55.1043V54H57.2603ZM67.1714 54V52.082H61.8514V50.024H66.4714V48.106H61.8514V46.118H67.1014V44.2H59.7094V54H67.1714ZM76.1723 51.102V51.074C76.1723 50.6447 76.1023 50.276 75.9623 49.968C75.8317 49.66 75.631 49.394 75.3603 49.17C75.099 48.9367 74.7723 48.7407 74.3803 48.582C73.9977 48.414 73.559 48.2647 73.0643 48.134C72.6443 48.022 72.2943 47.924 72.0143 47.84C71.7437 47.756 71.529 47.6673 71.3703 47.574C71.2117 47.4807 71.0997 47.378 71.0343 47.266C70.9783 47.1447 70.9503 47.0047 70.9503 46.846V46.818C70.9503 46.5753 71.053 46.3747 71.2583 46.216C71.473 46.048 71.7903 45.964 72.2103 45.964C72.6303 45.964 73.0503 46.0527 73.4703 46.23C73.8903 46.398 74.3197 46.6313 74.7583 46.93L75.8783 45.306C75.3743 44.9047 74.819 44.5967 74.2123 44.382C73.615 44.1673 72.957 44.06 72.2383 44.06C71.7343 44.06 71.2723 44.13 70.8523 44.27C70.4323 44.41 70.0683 44.6107 69.7603 44.872C69.4617 45.1333 69.2283 45.446 69.0603 45.81C68.8923 46.1647 68.8083 46.566 68.8083 47.014V47.042C68.8083 47.5273 68.883 47.9333 69.0323 48.26C69.191 48.5867 69.4103 48.862 69.6903 49.086C69.9703 49.3007 70.311 49.4827 70.7123 49.632C71.1137 49.7813 71.5617 49.9167 72.0563 50.038C72.467 50.1407 72.7983 50.2387 73.0503 50.332C73.3117 50.4253 73.5123 50.5187 73.6523 50.612C73.8017 50.7053 73.8997 50.808 73.9463 50.92C74.0023 51.0227 74.0303 51.144 74.0303 51.284V51.312C74.0303 51.6013 73.9043 51.83 73.6523 51.998C73.4097 52.1567 73.0643 52.236 72.6163 52.236C72.0563 52.236 71.5383 52.1287 71.0623 51.914C70.5957 51.6993 70.1383 51.41 69.6903 51.046L68.4163 52.572C69.0043 53.104 69.6577 53.5007 70.3763 53.762C71.095 54.014 71.8277 54.14 72.5743 54.14C73.1063 54.14 73.5917 54.0747 74.0303 53.944C74.469 53.804 74.847 53.608 75.1643 53.356C75.4817 53.0947 75.729 52.7773 75.9063 52.404C76.0837 52.0213 76.1723 51.5873 76.1723 51.102ZM37.5835 68.102V68.074C37.5835 67.6447 37.5135 67.276 37.3735 66.968C37.2428 66.66 37.0421 66.394 36.7715 66.17C36.5101 65.9367 36.1835 65.7407 35.7915 65.582C35.4088 65.414 34.9701 65.2647 34.4755 65.134C34.0555 65.022 33.7055 64.924 33.4255 64.84C33.1548 64.756 32.9401 64.6673 32.7815 64.574C32.6228 64.4807 32.5108 64.378 32.4455 64.266C32.3895 64.1447 32.3615 64.0047 32.3615 63.846V63.818C32.3615 63.5753 32.4641 63.3747 32.6695 63.216C32.8841 63.048 33.2015 62.964 33.6215 62.964C34.0415 62.964 34.4615 63.0527 34.8815 63.23C35.3015 63.398 35.7308 63.6313 36.1695 63.93L37.2895 62.306C36.7855 61.9047 36.2301 61.5967 35.6235 61.382C35.0261 61.1673 34.3681 61.06 33.6495 61.06C33.1455 61.06 32.6835 61.13 32.2635 61.27C31.8435 61.41 31.4795 61.6107 31.1715 61.872C30.8728 62.1333 30.6395 62.446 30.4715 62.81C30.3035 63.1647 30.2195 63.566 30.2195 64.014V64.042C30.2195 64.5273 30.2941 64.9333 30.4435 65.26C30.6021 65.5867 30.8215 65.862 31.1015 66.086C31.3815 66.3007 31.7221 66.4827 32.1235 66.632C32.5248 66.7813 32.9728 66.9167 33.4675 67.038C33.8781 67.1407 34.2095 67.2387 34.4615 67.332C34.7228 67.4253 34.9235 67.5187 35.0635 67.612C35.2128 67.7053 35.3108 67.808 35.3575 67.92C35.4135 68.0227 35.4415 68.144 35.4415 68.284V68.312C35.4415 68.6013 35.3155 68.83 35.0635 68.998C34.8208 69.1567 34.4755 69.236 34.0275 69.236C33.4675 69.236 32.9495 69.1287 32.4735 68.914C32.0068 68.6993 31.5495 68.41 31.1015 68.046L29.8275 69.572C30.4155 70.104 31.0688 70.5007 31.7875 70.762C32.5061 71.014 33.2388 71.14 33.9855 71.14C34.5175 71.14 35.0028 71.0747 35.4415 70.944C35.8801 70.804 36.2581 70.608 36.5755 70.356C36.8928 70.0947 37.1401 69.7773 37.3175 69.404C37.4948 69.0213 37.5835 68.5873 37.5835 68.102ZM49.4365 66.1V66.072C49.4365 65.372 49.3059 64.7187 49.0445 64.112C48.7925 63.496 48.4332 62.964 47.9665 62.516C47.5092 62.0587 46.9632 61.6993 46.3285 61.438C45.6939 61.1673 44.9985 61.032 44.2425 61.032C43.4865 61.032 42.7865 61.1673 42.1425 61.438C41.5079 61.6993 40.9572 62.0633 40.4905 62.53C40.0332 62.9873 39.6739 63.524 39.4125 64.14C39.1512 64.7467 39.0205 65.4 39.0205 66.1V66.128C39.0205 66.828 39.1465 67.486 39.3985 68.102C39.6599 68.7087 40.0192 69.2407 40.4765 69.698C40.9432 70.146 41.4939 70.5053 42.1285 70.776C42.7632 71.0373 43.4585 71.168 44.2145 71.168C44.9705 71.168 45.6659 71.0373 46.3005 70.776C46.9445 70.5053 47.4952 70.1413 47.9525 69.684C48.4192 69.2173 48.7832 68.6807 49.0445 68.074C49.3059 67.458 49.4365 66.8 49.4365 66.1ZM47.1825 66.128C47.1825 66.548 47.1079 66.9447 46.9585 67.318C46.8185 67.682 46.6179 68.004 46.3565 68.284C46.1045 68.564 45.7965 68.7833 45.4325 68.942C45.0685 69.1007 44.6719 69.18 44.2425 69.18C43.8039 69.18 43.4025 69.1007 43.0385 68.942C42.6839 68.774 42.3712 68.55 42.1005 68.27C41.8392 67.99 41.6339 67.6633 41.4845 67.29C41.3445 66.9167 41.2745 66.52 41.2745 66.1V66.072C41.2745 65.652 41.3445 65.26 41.4845 64.896C41.6339 64.5227 41.8345 64.196 42.0865 63.916C42.3479 63.636 42.6559 63.4167 43.0105 63.258C43.3745 63.0993 43.7759 63.02 44.2145 63.02C44.6439 63.02 45.0405 63.104 45.4045 63.272C45.7685 63.4307 46.0812 63.65 46.3425 63.93C46.6132 64.21 46.8185 64.5367 46.9585 64.91C47.1079 65.2833 47.1825 65.68 47.1825 66.1V66.128ZM58.3911 71V69.04H53.5051V61.2H51.3491V71H58.3911ZM69.047 66.1V66.072C69.047 65.3813 68.921 64.742 68.669 64.154C68.417 63.5567 68.0577 63.0387 67.591 62.6C67.1337 62.1613 66.583 61.8207 65.939 61.578C65.3044 61.326 64.6044 61.2 63.839 61.2H60.017V71H63.839C64.6044 71 65.3044 70.874 65.939 70.622C66.583 70.37 67.1337 70.0247 67.591 69.586C68.0577 69.1473 68.417 68.6293 68.669 68.032C68.921 67.4347 69.047 66.7907 69.047 66.1ZM66.793 66.128C66.793 66.5667 66.7184 66.9633 66.569 67.318C66.429 67.6727 66.2284 67.9807 65.967 68.242C65.715 68.5033 65.407 68.704 65.043 68.844C64.679 68.984 64.2777 69.054 63.839 69.054H62.173V63.146H63.839C64.2777 63.146 64.679 63.2207 65.043 63.37C65.407 63.51 65.715 63.7107 65.967 63.972C66.2284 64.2333 66.429 64.546 66.569 64.91C66.7184 65.274 66.793 65.6707 66.793 66.1V66.128Z" fill="white"/>
<defs>
<linearGradient id="paint0_linear" x1="98.6212" y1="0.31291" x2="21.7699" y2="0.313258" gradientUnits="userSpaceOnUse">
<stop stop-color="#01BFA6"/>
<stop offset="1" stop-color="#848DEA"/>
</linearGradient>
</defs>
</svg>
