<svg width="424" height="1123" viewBox="0 0 424 1123" fill="none" xmlns="http://www.w3.org/2000/svg">
<path d="M0 9.99997C0 4.47713 4.47715 0 10 0H414C419.523 0 424 4.47715 424 10V1113C424 1118.52 419.523 1123 414 1123H10C4.47715 1123 0 1118.52 0 1113V9.99997Z" fill="#01BFA3" fill-opacity="0.15"/>
<path d="M10 1H414C418.971 1 423 5.02944 423 10V1113C423 1117.97 418.971 1122 414 1122H10C5.02944 1122 1 1117.97 1 1113V9.99997C1 5.02941 5.02943 1 10 1Z" stroke="#01BFA3" stroke-opacity="0.2" stroke-width="2"/>
</svg>
