<svg width="19" height="18" viewBox="0 0 19 18" fill="none" xmlns="http://www.w3.org/2000/svg">
<path d="M0.821256 0.950034L0.821265 0.950015L0.816214 0.947627C0.788545 0.934548 0.767316 0.911063 0.756586 0.880963C0.747554 0.855624 0.748134 0.832407 0.756164 0.811445C0.767692 0.794208 0.790577 0.772971 0.830544 0.75985C0.873807 0.745648 0.924106 0.745889 0.972989 0.766468L2.6475 1.55966C2.67386 1.58274 2.70535 1.61153 2.73691 1.64303C2.7738 1.67987 2.80263 1.71233 2.82179 1.73723L3.06856 2.7345L3.20124 3.27069L3.75265 3.30306L18.0022 4.13955C18.0164 4.14277 18.0349 4.14673 18.0543 4.15025C18.0625 4.15173 18.0716 4.15327 18.0814 4.15479L16.9144 10.0461C16.9144 10.0463 16.9144 10.0465 16.9143 10.0467C16.8977 10.1277 16.7855 10.267 16.5765 10.282L5.87882 10.2812L4.9186 10.2811L5.15106 11.2127L5.36602 12.0742L5.50785 12.6426H6.09371H16.1423C16.2002 12.6426 16.2434 12.6643 16.2697 12.6892C16.2953 12.7135 16.3016 12.7361 16.3016 12.7541C16.3016 12.7722 16.2953 12.7948 16.2697 12.819C16.2434 12.844 16.2002 12.8656 16.1423 12.8656H5.37595C5.29613 12.8656 5.25101 12.8127 5.24239 12.7789C5.24236 12.7787 5.24233 12.7786 5.24229 12.7785L2.69626 2.37604L2.6354 2.12737L2.55126 1.78363L2.23246 1.63001L0.821256 0.950034ZM2.83778 1.75998C2.83772 1.75998 2.837 1.75887 2.83579 1.75667C2.83722 1.75889 2.83783 1.75999 2.83778 1.75998ZM17.573 5.19185L17.7369 4.34931L16.88 4.29994L4.29494 3.57486L3.28429 3.51663L3.52294 4.50042L4.74351 9.53204L4.88255 10.1052H5.47237H15.9994H16.6177L16.7357 9.49838L17.573 5.19185Z" stroke="#01BFA6" stroke-width="1.5"/>
<path d="M7.30557 16.155C7.30557 16.6416 6.87634 17.105 6.26118 17.105C5.64536 17.105 5.2168 16.6419 5.2168 16.155C5.2168 15.6682 5.64536 15.2051 6.26118 15.2051C6.87634 15.2051 7.30557 15.6684 7.30557 16.155Z" stroke="#01BFA6" stroke-width="1.5"/>
<path d="M15.3935 16.155C15.3935 16.6416 14.9642 17.105 14.3491 17.105C13.7332 17.105 13.3047 16.6419 13.3047 16.155C13.3047 15.6682 13.7332 15.2051 14.3491 15.2051C14.9642 15.2051 15.3935 15.6684 15.3935 16.155Z" stroke="#01BFA6" stroke-width="1.5"/>
</svg>
