<svg width="15" height="10" viewBox="0 0 15 10" fill="none" xmlns="http://www.w3.org/2000/svg">
<path d="M10.0225 1.06239L10.024 1.06381L13.9387 4.87154C13.992 4.9312 14 4.97808 14 5.00179L14 5.00379C14 5.05028 13.977 5.09849 13.954 5.12087L10.038 8.94544C10.0093 8.97339 9.95444 9 9.88425 9C9.84055 9 9.81026 8.99269 9.79011 8.98487C9.77114 8.97751 9.75181 8.96622 9.73054 8.94545L9.72437 8.93942L9.7181 8.9335C9.68755 8.90468 9.67656 8.87372 9.67656 8.8418C9.67656 8.80924 9.68856 8.76743 9.73042 8.72649C9.73046 8.72646 9.7305 8.72642 9.73054 8.72638L11.6097 6.8917L13.3669 5.17616L10.9112 5.17616L1.2003 5.17617C1.06682 5.17617 1 5.07738 1 5.00392C1 4.93052 1.06676 4.83167 1.2003 4.83167L10.9105 4.83167L13.3657 4.83167L11.6092 3.11625L9.73053 1.28146L9.72437 1.27543L9.71809 1.26951C9.68755 1.24069 9.67656 1.20973 9.67656 1.17781C9.67656 1.14522 9.68858 1.10336 9.73054 1.06239L9.73671 1.05636L9.74278 1.05022C9.80241 0.989944 9.93049 0.972514 10.0225 1.06239Z" stroke="white" stroke-width="2"/>
</svg>
