<svg width="661" height="1204" viewBox="0 0 661 1204" fill="none" xmlns="http://www.w3.org/2000/svg">
<path d="M-65.5174 389.853C-120.6 433.016 -145.522 513.924 -116.266 577.494C-88.0922 639.259 -16.0334 679.894 -8.80949 747.437C-4.83632 784.279 -21.8126 820.038 -35.7186 854.532C-52.6949 897.153 -65.3368 942.303 -62.6278 987.994C-59.9188 1033.69 -39.8724 1080.1 -2.30795 1106.11C48.6208 1141.5 119.957 1131.93 174.498 1101.95C185.695 1095.81 196.35 1088.77 204.297 1078.65C213.507 1066.92 217.48 1052.11 221.273 1037.84C226.51 1018.15 231.928 998.65 237.165 978.965C245.834 947.179 256.128 912.685 282.857 893.18C315.545 869.522 360.514 876.204 399.885 866.813C455.69 853.268 499.755 803.062 510.591 746.715C521.608 690.188 501.2 629.687 461.83 587.788C422.459 545.89 365.751 522.051 308.321 518.078C276.536 515.91 243.848 519.342 212.785 512.118C130.612 493.516 161.675 424.528 121.221 374.682C79.5031 323.212 -23.2574 356.623 -65.5174 389.853Z" stroke="url(#paint0_linear)" stroke-opacity="0.4" stroke-width="0.5" stroke-miterlimit="10" stroke-linecap="round" stroke-linejoin="round"/>
<path d="M122.484 365.831C88.893 326.1 18.0984 340.547 -30.6631 364.386C-43.6662 370.888 -55.0439 377.931 -64.0738 385.155C-97.8457 412.064 -120.782 452.699 -127.825 493.695C-132.159 519.34 -130.173 544.804 -120.601 568.463C-97.3039 626.073 -34.6362 667.069 -25.0645 732.265C-24.7033 734.071 -24.7033 735.877 -24.3421 737.683C-20.5496 775.067 -36.4422 811.187 -48.5423 845.681C-49.6259 848.932 -50.7095 851.821 -51.7931 855.072C-64.7962 894.804 -73.2843 935.8 -68.5888 976.615C-63.532 1020.68 -40.7766 1064.02 -2.12855 1090.39C48.439 1124.71 117.969 1116.94 171.607 1088.95C182.443 1083.17 193.279 1076.67 201.045 1067.09C210.075 1055.9 214.409 1041.81 218.563 1028.27C224.161 1009.66 229.76 990.702 235.358 971.739C238.609 960.903 242.04 949.525 246.194 938.509C253.779 918.643 264.254 900.222 281.23 887.58C313.377 863.741 357.262 868.978 395.188 858.504C449.367 843.695 491.447 793.669 501.199 737.683C507.701 700.48 501.018 661.651 484.403 627.338C476.276 610.181 465.441 594.288 452.979 580.382C415.234 538.664 361.055 514.103 305.792 508.685C275.09 505.795 243.666 508.323 213.325 500.738C134.223 481.234 163.119 414.051 122.484 365.831Z" stroke="url(#paint1_linear)" stroke-opacity="0.4" stroke-width="0.5" stroke-miterlimit="10" stroke-linecap="round" stroke-linejoin="round"/>
<path d="M123.93 357.164C89.616 318.155 19.002 334.951 -29.0371 359.151C-41.8596 365.833 -53.4179 373.057 -62.4478 380.281C-96.2197 407.551 -119.698 448.005 -128.547 487.556C-133.784 512.298 -133.062 536.498 -125.115 559.254C-105.791 614.336 -49.4448 656.235 -41.1373 722.334C-40.7761 724.14 -40.776 725.946 -40.4148 727.752C-37.164 765.678 -51.6119 802.158 -61.7254 836.833C-62.6284 839.904 -63.712 843.154 -64.4344 846.405C-75.2703 886.137 -81.5913 926.41 -74.5479 965.6C-66.9628 1008.22 -41.4984 1048.49 -1.58614 1075.04C48.4396 1108.45 116.345 1102.31 169.079 1076.31C179.915 1070.89 190.39 1064.75 198.336 1055.72C207.366 1045.24 211.881 1031.7 216.215 1018.7C222.175 1000.82 228.135 982.576 234.095 964.336C237.526 953.681 241.138 942.845 245.472 932.009C253.238 912.685 263.532 894.444 280.147 881.802C311.752 857.783 354.193 861.575 390.854 850.198C443.047 834.124 483.32 784.099 492.17 728.294C498.129 691.632 490.905 653.346 475.013 619.393C467.066 602.417 456.772 586.705 444.853 572.618C408.733 530.719 357.443 505.797 304.167 499.115C274.549 495.503 244.208 496.947 214.771 489.182C137.475 469.316 164.384 403.397 123.93 357.164Z" stroke="url(#paint2_linear)" stroke-opacity="0.4" stroke-width="0.5" stroke-miterlimit="10" stroke-linecap="round" stroke-linejoin="round"/>
<path d="M125.193 348.314C90.338 309.846 19.724 328.809 -27.5928 353.732C-40.4153 360.414 -51.6123 367.999 -60.8229 375.403C-94.5948 403.035 -118.795 443.128 -128.908 481.415C-135.41 505.254 -135.41 528.37 -129.27 550.042C-114.099 602.777 -64.0737 645.579 -56.4885 712.4C-56.1274 714.206 -56.1273 716.012 -55.9467 717.999C-53.0572 756.285 -66.0603 793.489 -74.729 828.164C-75.4514 831.414 -76.3544 834.484 -76.8961 837.555C-85.7455 877.106 -89.7186 916.837 -80.3275 954.402C-70.214 995.578 -42.0407 1032.78 -1.22546 1059.51C48.4391 1092.2 114.538 1087.5 166.55 1063.3C177.206 1058.43 187.68 1052.65 195.446 1044.16C204.657 1034.23 209.352 1021.58 213.687 1008.94C220.008 991.786 226.148 974.448 232.288 956.75C235.9 946.636 239.512 935.8 244.027 925.506C251.973 906.724 262.268 888.845 278.341 876.022C309.404 851.822 350.58 853.989 385.977 841.708C436.364 824.19 474.651 774.345 482.598 719.082C487.835 682.782 480.611 645.217 465.08 611.626C457.314 594.83 447.561 579.299 436.003 565.212C401.509 523.494 352.928 497.669 301.819 489.903C273.645 485.568 244.208 486.11 215.493 477.983C141.086 457.395 165.828 392.922 125.193 348.314Z" stroke="url(#paint3_linear)" stroke-opacity="0.4" stroke-width="0.5" stroke-miterlimit="10" stroke-linecap="round" stroke-linejoin="round"/>
<path d="M126.639 339.647C90.6995 301.902 20.4467 323.032 -26.1477 348.677C-38.7895 355.539 -49.9866 363.124 -59.0166 370.71C-92.7885 398.702 -117.53 438.615 -129.269 475.637C-136.674 498.573 -137.938 520.426 -133.604 541.014C-122.587 591.401 -78.8824 634.744 -72.2002 702.469C-72.0196 704.455 -71.8391 706.081 -71.6585 708.067C-69.1301 746.715 -80.869 784.46 -87.5511 819.316C-88.0929 822.386 -88.8153 825.637 -89.3571 828.707C-96.0392 868.258 -97.8452 907.267 -86.1063 943.206C-73.4645 982.938 -42.9433 1017.07 -0.683284 1044.16C48.6201 1075.77 112.913 1072.88 164.022 1050.66C174.317 1046.15 184.791 1040.73 192.738 1032.78C201.767 1023.39 206.644 1011.29 211.52 999.553C218.021 983.299 224.703 966.865 231.024 949.708C234.817 939.775 238.61 929.481 243.125 919.187C251.251 900.585 261.365 883.248 277.077 870.787C307.598 846.406 347.33 847.128 381.824 833.944C430.405 815.343 466.705 765.317 473.568 710.415C478.083 674.837 470.678 637.815 455.508 604.584C447.923 587.969 438.713 572.257 427.696 558.351C394.827 516.814 349.136 490.266 300.013 481.236C272.923 476.179 244.569 475.998 216.577 467.149C144.518 445.297 166.912 382.448 126.639 339.647Z" stroke="url(#paint4_linear)" stroke-opacity="0.4" stroke-width="0.5" stroke-miterlimit="10" stroke-linecap="round" stroke-linejoin="round"/>
<path d="M127.722 330.977C91.241 293.774 21.1688 317.252 -24.8838 343.438C-37.3451 350.482 -48.5422 358.428 -57.5721 366.013C-91.1634 394.548 -116.447 433.918 -129.992 469.496C-138.48 491.71 -140.828 512.117 -138.119 531.803C-131.256 579.842 -93.8723 624.088 -88.0932 692.355C-87.9126 694.341 -87.9126 696.147 -87.5514 697.953C-85.3842 736.962 -95.8589 775.249 -100.735 810.105C-101.096 813.355 -101.638 816.426 -101.999 819.676C-106.514 859.227 -105.972 897.695 -92.0663 931.828C-76.7155 969.934 -43.666 1001.18 -0.502957 1028.45C48.2586 1059.15 110.746 1057.71 161.133 1037.66C171.427 1033.5 181.721 1028.63 189.487 1021.22C198.516 1012.56 203.754 1001.18 208.63 989.8C215.493 974.269 222.536 958.557 229.218 942.122C233.011 932.55 237.164 922.617 241.679 912.685C249.987 894.625 259.92 877.468 275.271 865.007C305.25 840.445 343.898 839.723 376.767 825.636C423.542 805.59 458.036 755.564 463.815 701.384C467.608 666.168 460.023 629.687 445.394 596.999C437.99 580.564 429.321 565.033 418.846 551.307C387.603 509.95 344.62 482.499 297.665 472.386C271.839 466.787 244.388 465.342 217.118 456.493C147.768 433.376 167.995 371.973 127.722 330.977Z" stroke="url(#paint5_linear)" stroke-opacity="0.4" stroke-width="0.5" stroke-miterlimit="10" stroke-linecap="round" stroke-linejoin="round"/>
<path d="M128.986 322.128C91.7832 285.647 22.0722 311.292 -23.258 338.201C-35.5387 345.425 -46.5552 353.552 -55.7657 361.318C-89.357 390.214 -115.183 429.404 -130.353 463.717C-139.744 485.028 -143.356 504.171 -142.272 522.953C-139.383 568.825 -108.32 613.614 -103.624 682.964C-103.444 684.95 -103.444 686.756 -103.263 688.743C-101.457 728.113 -110.487 767.122 -113.738 801.797C-114.099 805.048 -114.28 808.118 -114.46 811.188C-116.989 850.559 -113.918 888.304 -98.0257 921.173C-79.9659 958.015 -44.388 986.008 -0.141425 1013.64C48.0783 1043.44 108.94 1043.62 158.605 1025.38C168.718 1021.77 178.832 1017.07 186.597 1010.03C195.808 1001.9 201.045 991.245 206.282 980.59C213.506 966.142 220.73 950.972 227.593 935.079C231.747 925.868 235.901 916.297 240.596 906.544C249.084 889.026 259.198 872.05 273.826 859.589C303.264 834.847 340.648 832.499 372.252 817.509C417.221 796.018 449.729 746.173 454.605 692.535C457.856 657.86 449.91 622.102 435.823 589.594C428.78 573.16 420.292 557.809 410.539 544.084C380.921 502.907 340.648 474.914 295.859 463.356C271.117 457.035 244.931 454.687 218.383 445.477C151.381 421.457 169.44 361.499 128.986 322.128Z" stroke="url(#paint6_linear)" stroke-opacity="0.4" stroke-width="0.5" stroke-miterlimit="10" stroke-linecap="round" stroke-linejoin="round"/>
<path d="M130.429 313.46C92.5038 277.702 22.7928 305.514 -21.9956 332.965C-34.0956 340.369 -45.1121 348.496 -54.3227 356.623C-87.9139 385.88 -114.281 424.889 -131.077 457.578C-141.371 477.985 -146.247 495.864 -146.789 513.744C-148.053 557.268 -123.492 602.779 -119.519 672.851C-119.338 674.837 -119.338 676.643 -119.157 678.63C-117.893 718.542 -125.478 757.913 -126.923 792.949C-127.104 796.019 -127.104 799.27 -127.104 802.52C-127.646 842.072 -122.047 879.094 -104.168 909.976C-83.5796 945.374 -45.6539 970.296 -0.143103 998.109C47.3543 1027.18 106.771 1028.81 155.533 1012.56C165.466 1009.13 175.579 1005.15 183.164 998.65C192.194 991.065 197.793 981.132 203.211 971.019C210.796 957.293 218.2 943.026 225.605 927.675C229.759 918.826 234.093 909.435 238.969 900.224C247.638 883.248 257.571 866.452 272.019 854.172C300.914 829.249 336.853 825.457 367.194 809.564C410.357 786.989 440.878 736.963 444.671 683.687C447.199 649.373 439.072 614.518 425.527 582.191C418.664 565.937 410.718 550.766 401.327 537.041C373.515 495.865 335.77 467.149 292.968 454.327C269.49 447.103 244.206 444.213 218.561 434.461C154.63 409.538 170.522 351.025 130.429 313.46Z" stroke="url(#paint7_linear)" stroke-opacity="0.4" stroke-width="0.5" stroke-miterlimit="10" stroke-linecap="round" stroke-linejoin="round"/>
<path d="M131.696 304.609C92.6869 269.573 23.5178 299.733 -20.5482 327.545C-32.4677 335.13 -43.4842 343.619 -52.6947 351.745C-86.1054 381.544 -113.195 420.192 -131.616 451.616C-142.994 471.302 -148.954 488.097 -151.121 504.712C-156.358 546.069 -138.118 592.122 -135.228 662.916C-135.048 664.903 -135.048 666.709 -134.867 668.696C-133.783 709.15 -140.285 748.881 -139.924 783.917C-139.924 787.168 -139.743 790.238 -139.743 793.489C-138.118 833.04 -129.991 869.34 -110.125 898.597C-86.8278 932.73 -46.3738 954.402 0.401148 982.395C47.3567 1010.57 105.148 1013.82 153.007 999.191C162.759 996.301 172.692 992.508 180.458 986.549C189.668 979.505 195.267 970.295 200.865 960.723C208.631 947.901 216.577 934.175 224.163 919.727C228.677 911.239 233.012 902.209 237.888 892.999C246.737 876.564 256.67 860.13 270.576 847.669C298.93 822.565 333.605 817.147 362.681 800.352C404.038 776.332 432.573 726.487 435.463 673.752C437.269 640.161 428.961 605.486 415.777 573.52C409.095 557.447 401.51 542.277 392.841 528.551C366.655 487.555 331.799 458.118 290.984 444.031C268.77 436.265 244.57 432.292 219.648 422.179C158.244 397.617 171.428 340.729 131.696 304.609Z" stroke="url(#paint8_linear)" stroke-opacity="0.4" stroke-width="0.5" stroke-miterlimit="10" stroke-linecap="round" stroke-linejoin="round"/>
<path d="M132.961 296.123C93.2295 261.809 24.2409 293.956 -19.1027 322.49C-30.8416 330.256 -41.8581 338.744 -51.0686 347.232C-84.4793 377.392 -112.111 415.498 -131.977 445.839C-144.257 464.621 -151.481 480.152 -155.454 495.684C-165.026 534.874 -152.926 581.649 -150.94 653.346C-150.759 655.333 -150.759 657.139 -150.759 659.306C-150.037 700.121 -154.913 740.395 -152.926 775.611C-152.746 778.682 -152.384 781.932 -152.204 785.003C-148.592 824.373 -138.117 860.131 -115.903 887.763C-89.7167 920.451 -47.0955 939.233 0.763076 967.226C47.3575 994.677 103.162 999.553 150.299 986.731C160.051 984.203 169.623 980.771 177.388 975.534C186.599 969.213 192.378 960.544 198.338 951.695C206.465 939.595 214.592 926.772 222.357 912.866C226.872 904.739 231.568 896.07 236.444 887.221C245.293 871.148 255.226 855.075 268.771 842.613C296.583 817.33 329.994 810.647 357.625 792.768C397.176 767.665 423.905 717.82 425.711 665.085C426.795 631.855 418.307 598.083 405.665 566.298C399.344 550.586 392.12 535.416 383.812 521.69C359.07 480.694 327.285 450.715 288.456 435.364C267.326 426.876 244.21 421.819 220.01 411.344C161.676 385.88 172.693 330.436 132.961 296.123Z" stroke="url(#paint9_linear)" stroke-opacity="0.4" stroke-width="0.5" stroke-miterlimit="10" stroke-linecap="round" stroke-linejoin="round"/>
<path d="M134.225 287.272C93.7709 253.681 25.1435 287.995 -17.4777 317.252C-29.036 325.198 -39.8719 333.867 -49.0824 342.355C-82.4931 372.876 -110.666 410.802 -132.338 439.697C-145.883 457.576 -154.191 472.024 -159.609 486.472C-173.334 523.675 -167.374 570.812 -166.471 643.232C-166.291 645.218 -166.471 647.205 -166.291 649.191C-165.93 690.368 -169.542 731.183 -165.93 766.58C-165.568 769.831 -165.207 773.082 -164.665 776.152C-158.886 815.522 -148.231 853.267 -121.683 876.565C-89.7171 904.557 -47.8182 923.34 1.30451 951.874C47.3571 978.422 101.356 984.743 147.77 974.088C157.161 971.921 166.913 969.031 174.679 964.155C183.709 958.376 189.849 950.429 195.989 942.122C204.297 930.925 212.966 919.005 221.093 905.46C225.969 897.695 230.664 889.387 235.721 880.718C244.751 865.187 254.503 849.294 267.868 837.014C295.138 811.549 327.285 803.242 353.832 784.64C391.578 758.092 416.5 708.247 417.223 656.235C417.764 623.546 408.915 590.136 396.634 559.073C390.494 543.541 383.631 528.371 376.046 514.646C352.929 473.83 323.853 443.309 287.192 426.514C267.326 417.484 245.112 411.524 221.815 400.507C164.927 373.959 173.776 319.961 134.225 287.272Z" stroke="url(#paint10_linear)" stroke-opacity="0.4" stroke-width="0.5" stroke-miterlimit="10" stroke-linecap="round" stroke-linejoin="round"/>
<path d="M135.67 278.605C94.132 245.736 26.0464 282.397 -16.2136 312.015C-27.7719 320.323 -38.2466 328.991 -47.6377 337.66C-81.0484 368.542 -109.764 406.288 -132.88 433.739C-147.328 450.715 -156.9 463.898 -163.943 477.443C-182.184 512.66 -182.364 560.157 -182.184 633.3C-182.184 635.106 -182.184 637.273 -182.184 639.44C-182.184 680.978 -184.531 722.335 -179.113 757.732C-178.572 760.802 -178.03 764.233 -177.488 767.304C-169.542 806.674 -156.358 843.697 -127.823 865.369C-93.1486 891.736 -48.9019 907.809 1.30439 936.344C46.6346 962.169 99.1887 969.935 144.88 961.086C154.271 959.28 163.662 956.751 171.428 952.598C180.639 947.36 186.779 940.136 193.28 932.551C201.949 922.076 210.799 911.06 219.287 898.238C224.163 890.833 229.039 882.706 234.096 874.399C243.306 859.409 253.059 843.877 265.881 831.416C292.61 805.771 323.492 795.838 348.595 776.514C384.354 748.702 407.47 698.857 407.109 647.206C406.928 614.879 397.898 582.371 386.16 551.489C380.38 535.957 373.879 521.148 366.655 507.423C345.164 466.788 318.796 435.364 284.302 417.485C265.7 407.913 244.57 400.87 221.996 389.492C168.539 362.041 174.679 309.667 135.67 278.605Z" stroke="url(#paint11_linear)" stroke-opacity="0.4" stroke-width="0.5" stroke-miterlimit="10" stroke-linecap="round" stroke-linejoin="round"/>
<path d="M136.933 269.754C94.6731 237.608 26.5875 276.436 -14.7696 306.596C-26.3278 314.904 -36.8026 323.934 -46.0131 332.783C-79.4238 364.027 -108.5 401.41 -133.242 427.597C-148.593 443.67 -159.609 455.77 -168.098 468.232C-190.853 501.462 -196.813 549.32 -197.716 623.185C-197.896 625.172 -197.716 627.158 -197.716 629.326C-198.077 671.224 -199.161 713.123 -191.756 748.701C-191.034 751.952 -190.311 755.203 -189.589 758.092C-179.656 797.282 -161.415 831.054 -133.242 853.809C-98.5672 881.983 -49.2639 891.916 2.20667 920.631C46.9951 945.553 97.9238 954.944 142.712 948.082C151.923 946.817 161.314 944.65 168.899 940.677C177.929 935.982 184.43 929.48 191.113 922.437C200.142 913.046 209.353 902.39 217.841 890.29C222.717 883.247 227.955 875.481 233.192 867.354C242.402 852.726 252.155 837.555 264.797 825.275C290.983 799.449 320.421 788.072 344.441 767.664C378.574 738.588 399.523 688.742 398.259 637.633C397.356 606.028 388.326 573.882 376.948 543.361C371.35 528.01 365.39 513.381 358.888 499.656C339.203 459.021 315.545 427.055 282.857 407.731C265.519 397.257 245.473 389.491 223.62 377.752C171.969 350.301 175.942 299.372 136.933 269.754Z" stroke="url(#paint12_linear)" stroke-opacity="0.4" stroke-width="0.5" stroke-miterlimit="10" stroke-linecap="round" stroke-linejoin="round"/>
<path d="M138.198 261.266C94.8542 229.842 27.491 270.837 -13.5048 301.72C-24.8825 310.208 -35.1766 319.418 -44.5678 328.448C-77.7979 360.234 -107.597 397.256 -134.145 421.998C-150.579 437.349 -162.86 448.185 -172.793 459.563C-200.244 490.626 -211.982 539.207 -213.788 613.974C-213.969 615.961 -213.788 617.947 -213.788 620.115C-214.691 662.555 -214.15 704.996 -205.3 740.574C-204.578 743.824 -203.675 746.895 -202.591 750.145C-190.491 789.335 -169.542 822.204 -139.924 843.515C-102.359 870.243 -50.8887 876.925 1.84597 905.821C46.0926 930.202 95.2153 940.677 139.281 935.981C148.311 934.898 157.522 933.272 165.287 929.841C174.317 925.868 181 919.908 187.682 913.587C197.073 904.918 206.464 895.166 215.494 883.608C220.731 876.925 225.968 869.521 231.206 861.755C240.597 847.669 250.169 832.679 262.449 820.398C288.094 794.392 316.448 781.57 339.023 760.078C371.17 729.738 390.494 680.073 388.146 629.325C386.701 598.262 377.129 566.657 366.474 536.498C361.056 521.327 355.458 506.699 349.498 493.154C331.438 452.7 310.489 420.192 279.967 399.423C263.894 388.407 244.751 379.738 223.801 367.458C175.401 338.562 176.846 289.078 138.198 261.266Z" stroke="url(#paint13_linear)" stroke-opacity="0.4" stroke-width="0.5" stroke-miterlimit="10" stroke-linecap="round" stroke-linejoin="round"/>
<path d="M139.46 252.418C95.2139 221.897 28.3925 264.879 -12.0615 296.303C-23.2586 304.972 -33.5527 314.182 -43.1245 323.393C-76.3546 355.539 -106.695 392.381 -134.688 415.679C-152.025 430.127 -165.751 439.879 -176.948 449.992C-208.914 478.707 -226.612 527.83 -229.321 603.501C-229.502 605.488 -229.502 607.655 -229.502 609.822C-230.586 652.804 -228.96 695.606 -218.124 731.365C-217.041 734.615 -216.138 737.685 -215.054 740.936C-200.787 780.126 -177.309 812.273 -145.704 831.958C-105.25 857.242 -51.6126 861.034 2.38626 890.111C46.0911 913.588 93.5885 925.688 136.932 922.799C145.781 922.257 154.992 920.993 162.577 918.103C171.788 914.672 178.65 909.254 185.513 903.836C195.085 896.07 204.837 887.04 214.228 876.204C219.466 869.884 225.064 862.84 230.301 855.074C239.873 841.53 249.264 826.721 261.184 814.44C286.287 788.253 313.196 773.986 334.507 751.592C364.847 719.806 382.365 670.142 378.753 619.935C376.586 589.234 367.014 558.351 356.72 528.553C351.483 513.563 346.426 499.115 340.828 485.57C324.393 445.297 306.333 412.067 277.799 390.034C262.99 378.475 244.93 368.723 224.522 355.901C178.831 326.824 177.747 278.785 139.46 252.418Z" stroke="url(#paint14_linear)" stroke-opacity="0.4" stroke-width="0.5" stroke-miterlimit="10" stroke-linecap="round" stroke-linejoin="round"/>
<path d="M140.904 243.749C95.5743 213.95 29.1141 259.1 -10.4369 291.065C-21.4534 299.915 -31.7476 309.486 -41.1387 318.516C-74.3688 351.024 -105.251 387.686 -134.869 409.719C-153.11 423.263 -168.28 431.571 -181.102 440.781C-217.764 467.329 -241.242 517.175 -244.854 593.387C-245.034 595.374 -245.034 597.541 -245.034 599.708C-246.479 643.052 -243.589 686.395 -230.948 722.154C-229.864 725.405 -228.6 728.475 -227.336 731.545C-211.262 770.735 -184.714 801.978 -151.304 820.219C-107.779 843.877 -52.1551 844.961 3.10795 874.218C46.0904 896.973 92.1429 910.518 134.584 909.615C143.433 909.434 152.102 908.712 160.048 906.183C169.078 903.294 176.302 898.598 183.345 893.722C193.278 886.679 203.392 878.371 212.963 868.077C218.562 862.118 223.98 855.255 229.578 847.85C239.331 834.847 248.722 820.399 260.28 808.119C284.841 781.751 310.486 765.859 330.533 742.561C359.067 709.692 374.599 659.847 370.084 610.183C367.375 580.023 357.442 549.863 347.509 520.064C342.452 505.255 337.757 490.807 332.881 477.262C318.071 437.17 302.721 403.398 276.353 379.92C262.628 367.639 245.471 356.984 226.147 343.8C182.081 315.266 178.65 268.491 140.904 243.749Z" stroke="url(#paint15_linear)" stroke-opacity="0.4" stroke-width="0.5" stroke-miterlimit="10" stroke-linecap="round" stroke-linejoin="round"/>
<path d="M142.17 234.899C95.9367 206.003 29.8378 253.32 -8.99089 285.647C-19.8268 294.677 -29.9403 304.429 -39.512 313.639C-72.7421 346.508 -103.986 382.809 -135.41 403.397C-154.734 416.219 -171.168 423.263 -185.435 431.39C-226.793 455.409 -255.869 506.157 -260.564 583.453C-260.745 585.44 -260.745 587.607 -260.745 589.774C-262.551 633.479 -258.217 677.545 -244.13 713.304C-242.685 716.554 -241.421 719.624 -239.976 722.875C-221.736 762.065 -192.84 792.406 -157.262 809.201C-110.848 831.054 -53.0569 829.609 3.28977 858.866C45.5498 880.899 90.1576 895.889 131.695 896.972C140.183 897.153 149.033 896.972 156.798 894.986C165.828 892.818 173.233 888.665 180.457 884.33C190.751 878.009 201.226 870.785 210.978 861.033C216.576 855.434 222.356 848.933 227.954 841.89C237.887 829.067 247.098 815.161 258.295 802.88C282.314 776.332 306.514 758.995 325.477 734.975C352.206 700.662 365.931 651.178 360.152 601.694C356.901 572.076 346.607 542.638 337.216 513.381C332.521 498.572 328.186 484.485 323.671 470.941C310.488 430.667 297.846 396.715 273.646 371.792C261.184 358.97 245.111 347.231 226.509 333.686C185.514 303.526 179.734 258.376 142.17 234.899Z" stroke="url(#paint16_linear)" stroke-opacity="0.4" stroke-width="0.5" stroke-miterlimit="10" stroke-linecap="round" stroke-linejoin="round"/>
<path d="M143.616 226.229C96.1185 198.236 30.5613 247.54 -7.54497 280.589C-18.2003 289.8 -28.3138 299.552 -37.8855 309.124C-71.1156 342.354 -102.901 378.473 -135.95 397.797C-156.177 409.717 -174.057 415.315 -189.769 422.72C-235.821 444.211 -270.857 495.862 -276.275 573.881C-276.456 575.867 -276.456 578.035 -276.637 580.382C-278.804 624.448 -273.205 669.056 -257.132 704.995C-255.687 708.246 -254.242 711.497 -252.617 714.567C-232.209 753.757 -200.605 783.194 -163.221 798.545C-113.917 818.953 -53.9587 814.618 3.65217 844.056C45.551 865.367 88.3528 881.801 129.168 884.691C137.656 885.232 146.144 885.413 154.091 883.968C163.301 882.343 170.706 878.911 178.291 875.299C188.946 870.062 199.601 863.38 209.715 854.35C215.675 849.113 221.454 842.972 227.233 836.11C237.346 823.829 246.557 809.923 257.212 797.823C280.69 771.094 303.807 752.312 321.325 727.209C346.067 691.631 358.167 641.966 351.485 593.024C347.331 563.948 337.037 534.872 328.007 505.976C323.492 491.347 319.519 477.261 315.726 463.716C304.168 423.623 294.415 388.948 272.202 362.761C261.005 349.397 245.835 336.755 228.136 322.669C188.946 291.786 180.458 248.262 143.616 226.229Z" stroke="url(#paint17_linear)" stroke-opacity="0.4" stroke-width="0.5" stroke-miterlimit="10" stroke-linecap="round" stroke-linejoin="round"/>
<path d="M144.697 217.561C96.2971 190.471 31.2816 241.761 -6.28281 275.352C-16.7575 284.743 -26.6904 294.676 -36.4428 304.429C-69.4923 338.201 -102 373.959 -136.494 391.838C-157.624 402.855 -176.948 407.37 -194.105 413.691C-244.853 432.654 -285.488 485.208 -291.989 563.949C-292.17 565.935 -292.351 568.283 -292.531 570.269C-295.24 614.877 -288.197 659.846 -270.318 695.785C-268.873 699.036 -267.067 702.287 -265.08 705.357C-242.686 744.366 -208.372 772.901 -169.002 786.987C-116.809 805.589 -54.8638 798.546 4.01122 828.164C45.1876 848.752 86.3641 866.451 126.457 871.508C134.764 872.591 143.253 873.133 151.018 872.23C160.048 871.146 167.814 868.437 175.58 865.367C186.596 860.852 197.613 854.892 207.907 846.404C213.867 841.528 220.007 835.749 225.605 829.067C235.899 817.328 245.11 803.783 255.404 791.683C278.34 764.774 300.193 744.366 316.266 718.541C339.382 681.699 349.496 632.215 341.55 583.453C336.854 554.919 326.199 526.565 317.711 497.85C313.376 483.402 309.945 469.496 306.514 455.951C296.581 416.038 289.537 380.822 269.31 353.01C259.197 338.923 245.11 325.559 228.134 311.111C192.195 280.228 181.359 237.968 144.697 217.561Z" stroke="url(#paint18_linear)" stroke-opacity="0.4" stroke-width="0.5" stroke-miterlimit="10" stroke-linecap="round" stroke-linejoin="round"/>
<path d="M146.143 208.891C96.8401 182.705 32.3665 235.981 -4.65611 270.114C-14.9502 279.686 -25.0637 289.799 -34.6355 299.732C-67.8655 333.685 -100.734 369.082 -137.035 385.878C-159.248 396.172 -179.836 399.061 -198.438 404.66C-253.701 420.914 -300.476 474.552 -307.7 554.015C-307.881 556.001 -308.061 558.349 -308.242 560.336C-311.312 605.305 -302.824 650.996 -283.319 687.116C-281.513 690.367 -279.707 693.617 -277.721 696.687C-253.159 735.697 -216.317 763.509 -175.141 775.79C-120.058 792.585 -55.946 783.014 4.37382 812.632C44.8279 832.497 84.5595 851.641 123.749 858.684C131.696 860.129 140.184 861.032 147.949 860.49C156.979 860.129 165.106 858.142 173.053 855.614C184.25 852.002 195.627 846.765 206.283 838.999C212.604 834.484 218.563 828.886 224.523 822.565C234.817 811.187 244.028 798.003 253.78 786.084C275.994 759.175 296.582 737.142 311.572 710.232C332.702 672.126 341.009 622.642 332.16 574.423C326.922 546.43 315.906 518.437 307.96 490.264C303.625 476.177 300.555 462.271 297.846 448.726C289.539 408.994 285.204 373.236 267.144 343.979C258.295 329.351 245.111 315.083 228.858 299.913C195.627 268.85 182.263 228.035 146.143 208.891Z" stroke="url(#paint19_linear)" stroke-opacity="0.4" stroke-width="0.5" stroke-miterlimit="10" stroke-linecap="round" stroke-linejoin="round"/>
<path d="M147.406 200.043C97.0195 174.94 32.907 230.023 -3.39325 264.878C-13.5068 274.63 -23.4396 284.924 -33.192 295.038C-66.2415 329.532 -99.6522 364.749 -137.578 379.919C-160.694 389.31 -182.547 390.936 -202.774 395.631C-262.552 409.537 -315.106 463.897 -323.414 544.444C-323.775 546.611 -323.775 548.779 -324.136 550.946C-327.567 596.276 -317.815 642.509 -296.504 678.629C-294.698 681.88 -292.531 685.13 -290.545 688.201C-263.816 727.21 -224.446 753.938 -181.463 765.135C-123.491 780.125 -57.2116 768.025 4.19188 797.643C44.1041 816.967 82.2103 837.375 120.678 846.224C128.624 848.03 136.751 849.294 144.517 849.475C153.727 849.655 161.854 848.391 169.981 846.405C181.539 843.515 193.098 839.181 204.295 831.957C210.616 827.803 216.937 822.566 222.896 816.606C233.371 805.77 242.401 792.767 251.792 780.848C273.283 753.577 292.788 730.099 306.333 702.468C325.657 662.917 332.158 613.433 322.226 565.935C316.446 538.485 305.069 511.214 297.664 483.221C294.052 469.135 291.163 455.409 288.995 442.045C282.313 402.494 280.688 366.194 264.795 335.492C257.03 320.502 244.93 305.151 229.579 289.439C198.877 257.293 183.165 217.742 147.406 200.043Z" stroke="url(#paint20_linear)" stroke-opacity="0.4" stroke-width="0.5" stroke-miterlimit="10" stroke-linecap="round" stroke-linejoin="round"/>
<path d="M148.852 191.374C97.2008 167.536 33.8108 224.424 -1.76706 259.641C-11.7 269.574 -21.8135 280.048 -31.2046 290.162C-64.2541 325.017 -98.2066 360.053 -137.577 373.779C-161.777 382.448 -185.074 382.628 -206.746 386.24C-271.4 397.437 -329.734 453.242 -339.125 534.511C-339.486 536.679 -339.486 538.846 -339.847 541.013C-343.459 586.885 -332.623 633.479 -309.507 669.599C-307.339 672.85 -305.172 676.1 -302.825 679.171C-274.109 717.999 -232.03 743.825 -187.061 753.758C-126.199 766.941 -57.9332 752.494 4.91507 782.112C44.1049 800.713 80.5858 822.746 118.331 833.402C126.097 835.749 134.224 837.375 141.989 837.917C151.019 838.639 159.507 838.097 167.815 836.652C179.734 834.846 191.834 831.054 202.851 824.372C209.533 820.579 215.854 815.703 221.814 809.743C232.469 799.449 241.318 786.627 250.529 774.888C271.478 747.437 289.719 722.695 301.999 693.799C319.517 653.164 324.213 603.681 313.016 556.364C306.514 529.274 294.956 502.545 287.913 475.275C284.481 461.369 282.134 447.463 280.508 434.279C275.632 394.728 276.535 358.067 262.81 325.92C256.127 310.208 245.111 294.135 230.663 277.881C202.129 245.735 184.069 207.809 148.852 191.374Z" stroke="url(#paint21_linear)" stroke-opacity="0.4" stroke-width="0.5" stroke-miterlimit="10" stroke-linecap="round" stroke-linejoin="round"/>
<path d="M149.937 182.708C97.2023 159.953 34.5346 218.647 -0.501476 254.405C-10.4344 264.7 -20.1867 275.174 -29.7584 285.468C-62.8079 320.685 -97.4828 355.36 -138.479 367.821C-163.582 375.587 -188.143 374.503 -211.44 377.212C-280.068 385.881 -344.541 442.408 -354.655 524.4C-355.016 526.567 -355.197 528.915 -355.377 530.902C-359.35 577.135 -347.07 624.451 -322.147 660.571C-319.98 663.822 -317.452 667.073 -315.104 670.143C-284.222 708.972 -239.794 733.894 -192.658 742.382C-128.907 753.76 -58.4736 736.784 5.45825 766.402C44.2869 784.281 78.9618 807.759 115.804 820.401C123.389 822.929 131.335 825.096 139.101 826.36C148.131 827.805 156.8 827.805 165.468 827.083C177.749 825.999 190.03 823.11 201.407 817.15C208.09 813.719 214.772 809.204 220.731 803.605C231.567 793.853 240.417 781.391 249.085 769.472C269.493 741.84 286.469 715.473 297.486 686.036C313.198 643.956 316.087 594.472 303.807 547.878C296.763 521.33 284.844 495.324 278.162 468.053C274.911 454.328 273.105 440.602 271.841 427.419C268.409 387.868 272.021 351.026 260.644 317.254C255.226 301 245.112 284.024 231.567 267.228C205.381 234.178 184.973 197.878 149.937 182.708Z" stroke="url(#paint22_linear)" stroke-opacity="0.4" stroke-width="0.5" stroke-miterlimit="10" stroke-linecap="round" stroke-linejoin="round"/>
<path d="M151.38 174.037C97.562 152.366 35.4361 212.685 0.761243 249.166C-8.99107 259.641 -18.5628 270.296 -28.3151 280.771C-61.3646 316.349 -96.4007 350.663 -139.022 361.86C-165.209 368.542 -191.034 366.194 -215.776 368.181C-288.919 374.14 -359.171 431.751 -370.549 514.646C-370.91 516.813 -371.091 519.161 -371.452 521.328C-375.786 567.922 -362.061 615.6 -335.332 652.081C-332.804 655.332 -330.276 658.583 -327.928 661.653C-295.059 700.662 -247.923 724.321 -198.8 731.545C-132.159 741.116 -59.7392 721.792 5.63739 751.41C43.7436 768.567 76.9737 793.49 112.913 807.757C120.317 810.827 128.264 813.356 136.029 814.981C145.059 816.787 153.909 817.69 162.758 817.509C175.219 817.329 187.861 815.162 199.781 809.744C206.824 806.673 213.325 802.339 219.646 797.102C230.482 787.711 239.332 775.611 247.639 763.691C267.505 735.879 283.217 707.886 292.969 677.546C306.695 634.202 308.14 584.718 294.414 538.485C286.829 512.479 274.729 487.014 268.408 460.105C265.338 446.56 264.074 433.015 263.351 419.651C261.545 380.281 267.686 342.716 258.656 307.68C254.321 290.704 245.291 273.005 232.469 255.487C208.449 222.438 185.694 187.763 151.38 174.037Z" stroke="url(#paint23_linear)" stroke-opacity="0.4" stroke-width="0.5" stroke-miterlimit="10" stroke-linecap="round" stroke-linejoin="round"/>
<path d="M152.645 165.189C97.7428 144.962 36.1588 206.907 2.38687 243.93C-7.18484 254.585 -16.9372 265.421 -26.5089 276.076C-59.5584 312.015 -95.1362 346.149 -139.563 355.901C-166.834 361.861 -193.743 358.068 -220.11 359.152C-297.587 362.583 -374.161 421.097 -386.261 504.714C-386.622 506.881 -386.803 509.229 -387.164 511.396C-392.04 558.532 -377.05 606.752 -348.516 643.233C-345.987 646.484 -343.278 649.554 -340.389 652.805C-305.533 691.633 -255.688 714.389 -204.579 720.348C-135.229 728.295 -60.4614 706.262 6.17939 735.699C43.5632 752.134 75.3486 778.501 110.385 794.755C117.789 798.186 125.374 801.076 133.14 803.424C142.17 805.952 151.2 807.397 160.23 807.758C173.052 808.3 186.055 806.855 197.975 802.159C205.018 799.45 211.881 795.477 218.202 790.601C229.218 781.752 237.887 769.832 246.014 758.093C265.157 729.92 279.605 700.663 288.274 669.239C300.374 624.631 299.652 575.147 285.023 529.456C276.716 503.811 264.254 479.069 258.656 452.521C255.766 439.157 254.863 425.612 254.683 412.428C254.502 373.238 263.351 335.132 256.308 298.471C252.877 280.953 245.111 262.351 233.192 244.291C211.52 211.061 186.597 177.831 152.645 165.189Z" stroke="url(#paint24_linear)" stroke-opacity="0.4" stroke-width="0.5" stroke-miterlimit="10" stroke-linecap="round" stroke-linejoin="round"/>
<path d="M153.909 156.338C97.9234 137.556 37.0618 200.946 3.65112 238.691C-5.92059 249.346 -15.3117 260.543 -25.064 271.379C-57.9329 307.86 -94.2332 341.632 -140.105 349.939C-168.278 354.996 -196.632 349.759 -224.445 350.12C-306.436 350.842 -388.789 410.44 -401.792 494.96C-402.153 497.127 -402.334 499.475 -402.695 501.642C-407.933 549.139 -391.498 598.082 -361.338 634.382C-358.629 637.813 -355.92 640.883 -352.85 643.954C-315.827 682.782 -263.634 704.635 -210.538 708.969C-138.48 714.929 -61.3643 690.909 6.54069 720.166C43.3828 736.059 73.3621 763.51 107.676 781.931C114.719 785.723 122.485 789.155 130.251 791.864C139.281 795.114 148.491 797.101 157.882 798.185C171.066 799.81 184.249 798.907 196.53 794.934C203.754 792.405 210.797 788.974 217.118 784.098C228.316 775.79 236.804 764.051 244.569 752.313C263.171 723.959 276.535 693.257 283.579 660.93C293.692 615.058 291.525 565.574 275.632 520.063C266.783 494.96 253.96 470.94 248.904 444.573C246.375 431.209 245.834 418.025 246.195 404.661C247.82 365.471 259.017 326.823 254.322 288.897C252.154 270.837 245.111 251.152 234.275 232.731C214.59 199.682 187.5 167.896 153.909 156.338Z" stroke="url(#paint25_linear)" stroke-opacity="0.4" stroke-width="0.5" stroke-miterlimit="10" stroke-linecap="round" stroke-linejoin="round"/>
<path d="M5.27669 233.453C-35.3579 280.951 -78.7016 334.769 -140.466 343.799C-169.723 348.133 -199.161 341.451 -228.598 340.909C-314.924 339.103 -403.417 399.784 -417.323 484.846C-426.173 539.206 -404.32 596.456 -365.311 635.104C-326.121 673.933 -271.4 694.701 -216.317 697.772C-141.369 701.925 -62.2671 675.558 6.90207 704.634C43.0217 719.805 71.5563 748.7 105.148 768.927C138.739 789.154 183.888 799.99 215.854 777.415C227.051 769.469 235.54 758.091 242.944 746.353C286.468 677.183 295.137 587.245 266.061 510.852C256.67 486.291 243.667 462.813 238.971 436.807C229.58 384.795 255.225 332.421 252.155 279.867C249.084 228.035 207.186 163.742 155.173 147.85C98.1043 130.151 37.7844 195.166 5.27669 233.453Z" stroke="url(#paint26_linear)" stroke-opacity="0.4" stroke-width="0.5" stroke-miterlimit="10" stroke-linecap="round" stroke-linejoin="round"/>
<path d="M247.096 295.762C246.554 274.993 240.414 251.876 229.397 230.746C213.505 200.767 188.402 174.219 159.325 163.564C138.918 156.159 117.968 160.132 97.9218 169.343C83.8351 175.844 70.1097 185.235 57.2872 195.53C39.0467 210.519 22.6123 227.676 10.151 241.582C-5.19987 258.739 -20.7313 276.799 -37.527 292.872C-64.7973 319.059 -94.9572 340.189 -131.077 347.052C-133.425 347.593 -135.772 347.774 -138.12 348.316C-167.377 352.289 -197.176 345.968 -226.794 345.607C-311.675 344.884 -397.821 403.94 -411.727 487.196C-420.937 541.195 -398.904 598.264 -359.714 636.731C-320.344 675.018 -265.623 695.065 -210.901 697.412C-138.12 700.844 -61.7271 675.379 5.45546 703.553C40.4915 718.001 68.3037 745.813 100.811 765.317C109.841 770.735 119.955 775.431 130.068 779.043C156.797 788.073 185.693 789.156 208.087 773.625C219.103 765.859 227.411 755.023 234.635 743.826C277.075 677.547 286.105 591.221 258.835 518.078C249.986 494.42 237.524 471.845 233.371 447.103C224.341 396.897 248.541 346.69 247.096 295.762Z" stroke="url(#paint27_linear)" stroke-opacity="0.4" stroke-width="0.5" stroke-miterlimit="10" stroke-linecap="round" stroke-linejoin="round"/>
<path d="M242.041 311.292C242.041 291.065 237.887 268.852 228.135 247.902C214.048 218.284 190.751 191.014 162.939 179.455C143.615 171.329 123.207 174.038 103.522 182.164C89.6158 187.763 76.0709 195.89 62.8872 205.462C44.2856 219.368 27.4899 236.163 14.4868 249.889C-1.22522 266.684 -17.1179 284.744 -34.2747 300.456C-62.0869 326.101 -92.608 345.787 -129.269 352.107C-131.617 352.649 -133.965 352.83 -136.493 353.191C-166.112 356.803 -196.091 351.024 -225.89 350.843C-308.242 350.843 -392.221 408.093 -406.307 489.362C-415.698 543.18 -393.665 600.25 -354.114 637.995C-314.744 675.92 -259.842 694.703 -205.482 696.689C-135.229 699.398 -61.1839 675.198 3.83152 701.926C37.784 716.013 64.6932 742.2 96.2979 761.163C105.147 766.4 114.719 770.915 124.652 774.346C150.477 783.196 178.47 784.099 200.323 769.109C210.978 761.705 219.105 751.41 225.967 740.574C267.325 676.823 276.716 594.47 251.071 524.398C242.944 501.824 231.024 480.152 227.051 456.313C219.466 408.635 241.86 360.234 242.041 311.292Z" stroke="url(#paint28_linear)" stroke-opacity="0.4" stroke-width="0.5" stroke-miterlimit="10" stroke-linecap="round" stroke-linejoin="round"/>
<path d="M236.983 327.184C237.705 307.68 235.357 286.188 227.05 265.6C215.13 236.343 193.459 208.531 166.911 195.709C148.49 186.679 128.804 188.304 109.48 194.986C95.7548 199.682 82.2099 206.725 68.8456 215.755C49.8828 228.578 32.5454 244.831 19.1811 258.557C3.10784 274.991 -12.9654 292.871 -30.6641 308.402C-59.018 333.144 -90.2615 351.746 -126.923 357.344C-129.451 357.705 -131.619 358.067 -134.147 358.428C-163.765 361.678 -194.106 356.261 -223.904 356.441C-304.451 357.164 -386.082 412.788 -399.988 492.432C-409.379 545.889 -387.346 602.958 -347.975 640.161C-308.424 677.545 -253.522 695.244 -199.524 696.869C-131.438 698.856 -59.921 675.739 2.74661 701.203C35.6155 714.568 61.8023 739.671 92.3234 757.55C100.812 762.426 110.203 766.761 119.774 770.192C144.697 778.499 171.787 779.583 192.917 765.316C203.211 758.272 210.977 748.34 217.839 738.226C258.113 677.364 267.865 598.624 243.845 531.622C236.08 510.13 225.063 489.362 221.451 466.606C214.408 420.192 235.357 373.959 236.983 327.184Z" stroke="url(#paint29_linear)" stroke-opacity="0.4" stroke-width="0.5" stroke-miterlimit="10" stroke-linecap="round" stroke-linejoin="round"/>
<path d="M231.926 342.715C233.19 323.752 233.01 303.345 225.786 282.756C215.672 253.861 195.806 225.326 170.703 211.42C153.185 201.487 134.222 202.029 115.079 207.447C101.715 211.059 87.9893 217.199 74.4444 225.326C55.4816 237.065 37.4217 252.958 23.5157 266.503C6.90062 282.756 -9.35322 300.455 -27.4131 315.264C-56.3088 339.464 -88.0941 356.441 -124.936 361.497C-127.465 361.859 -129.812 362.039 -132.16 362.22C-162.139 365.109 -192.48 360.053 -222.64 360.594C-301.2 362.22 -380.483 416.219 -394.389 493.695C-403.961 546.972 -381.928 603.68 -342.196 640.522C-302.464 677.364 -247.743 694.159 -193.925 695.243C-128.187 696.688 -59.1984 674.655 1.48268 698.855C33.268 711.497 58.5518 735.697 88.1699 752.673C96.4774 757.369 105.327 761.523 114.718 764.773C138.918 772.72 164.924 773.803 185.512 760.078C195.445 753.396 203.03 744.005 209.713 734.072C248.902 676.1 258.835 601.151 236.622 537.039C229.398 516.451 219.104 496.766 216.034 474.913C209.351 431.75 228.856 387.323 231.926 342.715Z" stroke="url(#paint30_linear)" stroke-opacity="0.4" stroke-width="0.5" stroke-miterlimit="10" stroke-linecap="round" stroke-linejoin="round"/>
<path d="M226.872 358.249C228.859 340.009 230.484 320.324 224.705 300.097C216.398 271.562 198.518 242.486 174.499 227.135C158.064 216.479 139.643 215.757 121.042 219.911C107.858 222.981 94.1326 227.677 80.4071 235.262C61.0831 245.917 42.662 261.448 28.2142 274.813C11.2379 290.705 -5.55773 308.223 -23.7982 322.852C-53.4163 346.33 -85.5628 361.861 -122.585 366.376C-124.933 366.557 -127.462 366.918 -129.809 367.098C-159.969 369.446 -190.671 364.751 -220.65 365.834C-297.043 368.182 -374.159 420.736 -388.246 496.226C-397.998 549.322 -375.784 605.849 -336.053 642.33C-296.321 678.811 -241.419 694.343 -187.962 695.065C-124.572 695.968 -58.2924 674.838 0.582634 697.593C31.2844 709.513 55.6651 732.449 84.3803 748.883C92.5072 753.398 101.176 757.372 110.025 760.442C133.322 768.207 158.426 769.11 178.291 756.107C187.863 749.786 195.448 740.756 201.769 731.546C240.056 676.283 249.989 604.947 229.581 544.085C222.899 524.4 213.327 505.798 210.619 485.029C204.298 443.311 222.177 400.87 226.872 358.249Z" stroke="url(#paint31_linear)" stroke-opacity="0.4" stroke-width="0.5" stroke-miterlimit="10" stroke-linecap="round" stroke-linejoin="round"/>
<path d="M221.813 373.778C224.522 355.899 227.954 337.297 223.439 317.251C217.118 289.258 200.864 259.64 178.289 242.844C162.577 231.467 145.059 229.48 126.638 232.37C113.816 234.356 99.9095 238.149 86.184 245.012C66.4988 254.583 47.536 269.573 32.7269 282.937C15.3895 298.469 -1.76739 315.987 -20.5496 330.073C-50.7095 352.648 -83.3978 366.915 -120.782 371.069C-123.129 371.25 -125.658 371.611 -128.006 371.792C-158.346 373.959 -189.228 369.444 -219.388 370.708C-293.976 374.139 -368.743 425.068 -382.83 498.752C-392.763 551.668 -370.549 608.195 -330.637 643.773C-290.725 679.712 -236.004 694.34 -182.908 694.34C-122.046 694.521 -57.9335 674.474 -1.40622 695.966C28.2119 707.163 51.8703 729.015 79.5018 744.366C87.0869 748.7 95.5751 752.493 104.244 755.382C126.819 762.787 151.199 763.69 169.982 751.409C179.192 745.45 186.416 736.781 192.737 727.932C229.94 675.558 240.234 607.834 221.452 550.042C215.492 531.441 206.463 513.742 204.115 494.057C199.419 455.047 215.854 414.413 221.813 373.778Z" stroke="url(#paint32_linear)" stroke-opacity="0.4" stroke-width="0.5" stroke-miterlimit="10" stroke-linecap="round" stroke-linejoin="round"/>
<path d="M216.756 389.671C220.007 372.334 225.425 354.635 222.355 334.95C218.021 307.138 203.392 276.978 182.082 259.279C167.453 247.179 150.477 243.929 132.598 245.554C119.956 246.637 106.05 249.346 91.963 255.487C72.0972 264.156 52.5926 278.603 37.0611 291.968C19.1819 307.319 1.84443 324.656 -17.299 338.381C-48.0007 360.414 -81.2308 373.056 -118.795 376.668C-121.143 376.849 -123.671 377.21 -126.2 377.21C-156.721 378.836 -187.784 374.862 -218.124 376.668C-290.544 380.461 -363.325 430.125 -377.232 501.823C-387.526 554.377 -365.131 610.724 -325.039 646.121C-284.946 681.518 -230.224 695.063 -177.49 694.702C-118.976 694.341 -57.3918 675.378 -2.85114 695.605C25.6834 706.08 48.6194 726.849 75.1673 741.477C82.5719 745.631 90.6988 749.062 99.0063 751.952C120.678 758.814 144.156 759.898 162.396 748.159C171.426 742.38 178.289 734.434 184.429 726.126C220.549 676.642 231.024 612.71 214.048 558.17C208.449 540.652 200.322 523.856 198.335 505.254C194.362 466.606 209.533 427.597 216.756 389.671Z" stroke="url(#paint33_linear)" stroke-opacity="0.4" stroke-width="0.5" stroke-miterlimit="10" stroke-linecap="round" stroke-linejoin="round"/>
<path d="M211.701 405.203C218.925 389.311 222.898 371.612 221.092 352.108C218.564 324.657 205.922 293.955 185.875 274.992C172.15 261.989 155.896 257.655 138.378 257.835C125.917 258.016 112.011 259.641 97.9239 265.059C77.6969 272.644 57.8311 286.731 41.7578 299.915C23.5174 314.904 5.81876 332.242 -13.6859 345.245C-45.11 366.555 -78.7013 377.752 -116.446 380.823C-118.794 381.003 -121.503 381.184 -123.851 381.364C-154.553 382.809 -185.796 379.017 -216.317 381.003C-286.931 385.518 -357.365 433.557 -371.09 503.268C-381.565 555.642 -358.99 611.808 -318.897 646.844C-278.804 681.88 -224.083 694.341 -171.529 693.438C-115.363 692.535 -56.1265 674.476 -3.93354 693.438C23.3368 703.371 45.5504 722.695 71.1954 736.782C78.4193 740.755 86.0045 744.006 94.1314 746.715C114.9 753.397 137.475 754.3 154.993 743.284C163.662 737.866 170.524 730.28 176.304 722.334C211.34 675.74 222.176 615.42 206.825 563.949C201.768 547.334 194.363 531.622 192.738 513.743C189.487 477.985 210.256 442.046 211.701 405.203Z" stroke="url(#paint34_linear)" stroke-opacity="0.4" stroke-width="0.5" stroke-miterlimit="10" stroke-linecap="round" stroke-linejoin="round"/>
<path d="M206.644 420.735C214.952 405.565 220.37 388.589 219.828 369.265C219.286 342.355 208.27 310.751 189.668 290.704C176.846 276.798 161.314 271.38 144.157 270.477C131.877 269.755 118.151 270.477 103.523 274.992C83.115 281.674 62.5268 295.039 46.0923 308.222C27.4907 322.851 9.61144 340.008 -10.435 352.83C-42.4009 373.238 -76.534 383.532 -114.64 385.518C-116.988 385.699 -119.516 385.699 -122.225 385.88C-153.108 386.783 -184.532 383.532 -215.234 385.699C-283.68 390.936 -351.946 437.531 -365.853 505.255C-376.327 557.267 -353.752 613.434 -313.66 647.747C-273.386 682.241 -218.665 693.619 -166.472 692.355C-112.654 690.91 -56.1264 673.753 -5.92004 691.452C20.2667 700.663 41.7579 718.903 66.3193 731.906C73.182 735.518 80.7672 738.769 88.3523 741.297C108.399 747.618 129.89 748.521 146.866 738.046C155.174 732.99 161.675 725.766 167.274 718.361C201.407 674.476 212.243 617.768 198.698 569.548C194.364 554.017 187.681 539.027 186.237 522.412C184.611 489.724 204.838 455.771 206.644 420.735Z" stroke="url(#paint35_linear)" stroke-opacity="0.4" stroke-width="0.5" stroke-miterlimit="10" stroke-linecap="round" stroke-linejoin="round"/>
<path d="M201.768 436.446C211.159 421.998 218.202 405.564 218.925 386.781C220.189 360.233 211.159 328.087 193.822 306.776C182.083 292.148 167.093 285.466 150.297 283.118C138.017 281.312 124.472 281.131 109.843 284.924C89.2551 290.342 68.1251 303.525 51.1489 316.529C32.0054 330.976 13.765 347.772 -6.64262 360.233C-39.1503 380.099 -73.8252 388.768 -112.293 390.393C-114.821 390.393 -117.169 390.574 -119.697 390.574C-150.76 391.296 -182.365 388.226 -213.247 390.935C-279.707 396.714 -345.806 441.864 -359.712 507.782C-370.368 559.614 -347.793 615.78 -307.339 649.733C-266.885 683.685 -212.344 694.16 -160.332 692.354C-108.681 690.548 -54.6818 674.113 -6.64262 690.728C18.4606 699.216 38.8682 716.373 62.7071 728.654C69.3893 732.085 76.4326 735.156 83.8372 737.503C102.981 743.282 123.569 744.366 139.823 734.614C147.769 729.918 154.09 723.236 159.688 716.193C192.557 675.016 203.935 622.101 192.016 576.951C188.223 562.323 182.263 548.417 181.18 532.885C179.554 501.281 199.24 469.315 201.768 436.446Z" stroke="url(#paint36_linear)" stroke-opacity="0.4" stroke-width="0.5" stroke-miterlimit="10" stroke-linecap="round" stroke-linejoin="round"/>
<path d="M196.527 452.159C207.002 438.433 215.49 422.721 217.657 403.939C220.908 377.571 213.503 345.244 197.611 322.489C186.594 307.138 172.327 299.372 156.073 295.76C143.973 293.051 130.609 291.607 115.619 294.677C94.6697 299.011 73.1785 311.834 55.6605 324.656C36.3364 338.923 17.5542 355.538 -3.21462 367.639C-36.4447 386.782 -71.4808 394.006 -110.129 395.089C-112.657 395.089 -115.186 395.089 -117.714 395.089C-148.957 395.27 -180.743 392.742 -211.806 395.631C-276.279 401.952 -340.392 445.838 -353.937 509.95C-364.953 561.421 -342.198 617.406 -301.563 650.817C-260.928 684.227 -206.568 693.799 -154.737 691.451C-105.433 689.104 -53.9627 673.753 -8.09076 688.923C15.9288 696.689 35.614 712.762 58.3694 724.32C64.6903 727.39 71.5531 730.28 78.5964 732.628C96.8368 738.226 116.522 739.129 132.054 730.099C139.639 725.765 145.779 719.264 151.016 712.943C182.802 674.656 194.36 625.533 184.246 583.273C180.996 569.547 175.758 556.725 175.036 542.277C174.494 512.84 193.457 483.041 196.527 452.159Z" stroke="url(#paint37_linear)" stroke-opacity="0.4" stroke-width="0.5" stroke-miterlimit="10" stroke-linecap="round" stroke-linejoin="round"/>
<path d="M191.473 467.691C203.032 454.688 212.965 439.699 216.576 421.278C221.633 395.271 216.035 362.222 201.226 338.383C191.293 322.31 177.387 313.099 161.675 308.223C149.755 304.611 136.391 302.083 121.221 304.611C100.091 308.042 78.0576 320.323 59.9977 332.965C40.3125 346.871 21.1691 363.486 0.219654 375.044C-33.3716 393.465 -69.1301 399.245 -107.959 399.786C-110.487 399.786 -113.016 399.786 -115.544 399.786C-146.968 399.786 -179.114 397.258 -210.177 400.87C-272.664 407.733 -334.429 450.354 -347.974 512.299C-359.171 563.589 -336.235 619.394 -295.6 652.444C-254.966 685.493 -200.606 693.981 -148.955 691.092C-102.18 688.383 -53.0569 673.935 -9.17148 687.48C13.7645 694.523 32.7273 709.513 54.5797 720.168C60.7201 723.057 67.041 725.766 74.0844 727.753C91.6024 732.99 110.204 733.893 125.194 725.405C132.598 721.251 138.377 715.472 143.615 709.513C174.497 673.935 186.236 628.604 177.748 589.415C175.039 576.953 170.343 564.673 170.343 551.308C169.621 524.58 188.042 496.768 191.473 467.691Z" stroke="url(#paint38_linear)" stroke-opacity="0.4" stroke-width="0.5" stroke-miterlimit="10" stroke-linecap="round" stroke-linejoin="round"/>
<path d="M186.598 483.402C199.24 471.121 210.618 456.854 215.494 438.614C222.537 413.149 218.745 379.378 205.2 354.274C196.17 337.298 183.167 326.823 167.816 320.864C156.077 316.349 142.713 312.737 127.362 314.362C105.871 316.71 83.4765 328.629 64.8749 341.091C44.6479 354.816 25.3238 371.251 3.83261 382.267C-30.4811 399.966 -66.6007 404.3 -105.791 404.481C-108.319 404.481 -110.847 404.481 -113.376 404.481C-144.98 403.939 -177.308 401.952 -208.551 405.745C-269.052 413.149 -328.649 454.326 -342.194 514.465C-353.572 565.574 -330.455 621.199 -289.82 653.526C-249.005 686.033 -194.645 693.799 -143.355 690.187C-98.9278 686.936 -52.3334 673.211 -10.4346 685.853C11.5984 692.354 29.4776 705.899 50.2464 715.832C56.0256 718.722 62.3465 721.07 68.8481 722.876C85.4631 727.571 103.162 728.655 117.429 720.889C124.472 717.096 130.071 711.859 134.947 706.261C164.746 673.572 176.846 631.854 170.164 595.915C167.997 584.357 164.023 573.16 164.204 560.698C164.565 536.137 182.444 510.311 186.598 483.402Z" stroke="url(#paint39_linear)" stroke-opacity="0.4" stroke-width="0.5" stroke-miterlimit="10" stroke-linecap="round" stroke-linejoin="round"/>
<path d="M181.539 498.933C195.265 487.375 208.087 473.83 214.408 455.951C223.258 430.848 221.091 396.534 209.171 370.167C201.044 352.287 188.763 340.729 173.593 333.505C162.035 328.087 148.671 323.392 133.139 324.475C111.467 325.92 88.1701 337.298 69.3879 349.578C48.7997 362.943 29.1145 379.377 7.26207 390.032C-27.5934 407.189 -64.4355 410.079 -103.625 409.537C-106.154 409.537 -108.682 409.537 -111.391 409.356C-143.176 408.634 -175.684 406.828 -206.928 410.982C-265.441 418.928 -323.052 458.84 -336.417 516.993C-348.156 567.741 -325.039 623.365 -284.043 655.331C-243.047 687.297 -188.687 693.979 -137.758 690.006C-95.679 686.575 -51.613 673.572 -11.8814 684.769C8.88742 690.729 26.2249 703.009 45.9101 712.22C51.328 714.748 57.2878 717.096 63.6087 718.721C79.3208 723.236 96.297 723.959 109.661 717.096C116.343 713.665 121.581 708.788 126.638 703.732C155.353 673.933 167.453 635.827 162.577 603.138C160.951 592.483 157.7 582.37 158.242 570.992C159.506 547.695 176.663 524.036 181.539 498.933Z" stroke="url(#paint40_linear)" stroke-opacity="0.4" stroke-width="0.5" stroke-miterlimit="10" stroke-linecap="round" stroke-linejoin="round"/>
<path d="M176.303 514.647C190.751 503.812 205.38 490.989 212.965 473.29C223.62 448.548 223.44 413.693 212.784 386.061C205.56 367.64 193.821 354.457 179.374 346.149C167.996 339.467 154.632 334.049 139.1 334.41C117.067 334.771 93.4088 345.788 74.0848 357.888C53.1353 370.891 33.0889 387.326 10.6947 397.439C-24.8831 413.874 -62.0864 415.318 -101.457 414.235C-103.985 414.235 -106.694 414.054 -109.223 414.054C-141.189 412.79 -173.877 411.165 -205.482 416.041C-262.009 424.529 -317.272 463.177 -330.636 519.524C-342.556 570.091 -319.259 625.535 -278.263 657.14C-237.267 688.744 -182.907 694.343 -132.339 689.647C-92.6075 686.035 -50.8893 673.574 -13.5054 683.507C6.17978 688.744 22.7948 699.941 41.577 708.249C46.8144 710.597 52.4129 712.583 58.3727 714.209C73.3623 718.362 89.255 719.085 102.077 712.764C108.398 709.694 113.636 705.179 118.151 700.664C145.782 673.755 158.244 639.26 154.993 609.642C154.09 600.07 151.381 590.86 152.284 580.566C154.632 559.436 171.247 537.764 176.303 514.647Z" stroke="url(#paint41_linear)" stroke-opacity="0.4" stroke-width="0.5" stroke-miterlimit="10" stroke-linecap="round" stroke-linejoin="round"/>
<path d="M171.427 530.358C186.958 520.244 203.031 508.144 212.061 490.806C224.884 466.426 226.329 431.028 216.938 402.133C210.617 382.809 199.6 368.541 185.333 358.97C174.136 351.385 160.952 345.064 144.879 344.522C122.485 343.799 98.465 354.455 78.5992 366.374C57.108 379.197 36.881 395.089 14.3062 405.022C-21.6329 420.734 -59.378 420.915 -99.1096 419.109C-101.638 419.109 -104.347 418.928 -107.056 418.748C-139.202 417.303 -172.071 415.858 -203.857 420.915C-258.578 429.764 -311.493 467.148 -324.677 521.508C-336.958 571.715 -313.299 627.158 -272.303 658.041C-231.127 689.103 -177.128 693.98 -126.38 688.381C-88.9961 684.227 -49.8063 672.85 -14.409 681.518C4.19265 686.033 19.9047 695.966 37.6033 703.551C42.6601 705.719 47.7168 707.525 53.496 708.969C67.7633 712.762 82.5723 713.484 94.6724 707.886C100.632 705.177 105.689 701.204 110.204 697.05C136.932 672.85 149.574 642.148 147.949 615.6C147.407 607.112 145.601 598.804 147.046 589.413C149.574 570.992 165.648 551.307 171.427 530.358Z" stroke="url(#paint42_linear)" stroke-opacity="0.4" stroke-width="0.5" stroke-miterlimit="10" stroke-linecap="round" stroke-linejoin="round"/>
<path d="M166.371 545.889C182.986 536.498 200.504 525.12 210.798 507.963C225.427 483.944 228.497 448.005 220.551 418.025C215.133 397.798 204.839 382.447 191.113 371.612C180.097 363.123 166.913 355.719 150.84 354.455C128.265 352.829 103.703 362.943 83.2959 374.682C61.6241 387.324 40.8553 403.036 17.7387 412.427C-18.9228 427.416 -57.029 426.152 -97.1219 423.985C-99.8309 423.804 -102.359 423.804 -104.888 423.443C-137.215 421.457 -170.445 420.373 -202.05 425.972C-254.604 435.182 -305.713 471.482 -318.716 523.856C-331.177 573.882 -307.519 628.964 -266.343 659.666C-224.986 690.187 -170.987 694.341 -120.6 688.02C-85.5636 683.685 -48.9021 672.669 -15.672 680.254C1.84604 684.047 16.6551 693.077 33.4507 699.759C38.1463 701.565 43.2031 703.371 48.4404 704.635C61.6241 708.066 75.7108 708.789 87.269 703.732C93.0482 701.203 97.5631 697.772 101.897 694.16C127.362 672.669 140.546 645.76 140.546 622.282C140.546 614.697 139.462 607.473 141.268 599.165C144.338 582.731 160.05 564.852 166.371 545.889Z" stroke="url(#paint43_linear)" stroke-opacity="0.4" stroke-width="0.5" stroke-miterlimit="10" stroke-linecap="round" stroke-linejoin="round"/>
<path d="M161.311 561.42C179.01 552.752 197.972 542.096 209.711 525.301C226.146 501.642 231.202 465.161 224.52 433.918C220.186 412.969 210.434 395.992 197.069 384.073C186.414 374.501 173.05 366.194 156.615 364.207C133.86 361.317 108.757 371.25 87.8074 382.809C65.7744 395.089 44.6444 410.801 21.1666 419.831C-16.0367 434.279 -54.6848 431.39 -94.9582 428.681C-97.6672 428.5 -100.376 428.319 -102.724 428.139C-135.232 425.972 -168.642 425.069 -200.608 431.028C-251.356 440.6 -300.118 475.636 -313.121 526.204C-325.943 575.868 -302.104 631.131 -260.567 661.111C-219.21 691.271 -165.03 694.521 -115.005 687.478C-82.3163 682.963 -48.1832 672.669 -17.1203 678.809C-0.685823 681.879 13.4008 689.826 29.1129 695.786C33.6278 697.411 38.3234 698.856 43.1996 700.12C55.6609 703.19 68.6639 703.913 79.4998 699.578C84.9178 697.411 89.4327 694.341 93.5865 691.271C117.967 672.669 131.151 649.372 133.138 628.964C133.86 622.463 133.318 616.142 135.485 608.918C139.458 594.47 154.448 578.758 161.311 561.42Z" stroke="url(#paint44_linear)" stroke-opacity="0.4" stroke-width="0.5" stroke-miterlimit="10" stroke-linecap="round" stroke-linejoin="round"/>
<path d="M156.256 577.314C175.038 569.368 195.446 559.435 208.449 542.82C226.689 519.523 233.371 482.5 228.134 449.812C224.522 428.14 215.673 409.9 202.67 396.896C192.195 386.422 178.831 377.031 162.396 374.322C139.46 370.529 113.635 379.74 92.3239 391.298C69.7491 403.398 48.4385 418.929 24.5996 427.598C-13.1455 441.143 -52.3353 436.989 -92.97 433.558C-95.679 433.377 -98.2073 433.016 -100.916 432.835C-133.785 430.307 -167.196 429.404 -199.162 436.086C-247.743 446.019 -294.698 479.972 -307.34 528.733C-320.343 578.217 -296.324 633.3 -254.786 662.918C-213.248 692.536 -159.25 694.884 -109.404 687.299C-79.0639 682.603 -47.4592 673.031 -18.2023 677.727C-3.03201 680.255 10.3323 686.757 25.1413 691.814C29.2951 693.078 33.6295 694.523 38.325 695.606C50.0639 698.315 61.9834 699.038 72.0969 695.426C77.1537 693.62 81.488 691.091 85.2806 688.382C108.758 672.49 122.123 652.985 125.915 635.828C127.179 630.229 127.36 624.992 129.708 618.671C134.403 606.029 148.851 592.304 156.256 577.314Z" stroke="url(#paint45_linear)" stroke-opacity="0.4" stroke-width="0.5" stroke-miterlimit="10" stroke-linecap="round" stroke-linejoin="round"/>
<path d="M151.199 592.844C171.064 585.62 192.917 576.41 207.365 560.156C227.592 537.401 236.08 499.656 232.107 465.703C229.578 443.309 221.271 423.804 208.629 409.356C198.335 397.617 184.97 387.504 168.355 383.892C145.058 379.016 118.871 387.865 97.019 399.243C74.083 410.982 52.4113 426.513 28.2111 434.46C-10.0758 447.463 -49.988 441.864 -90.6227 437.71C-93.3316 437.53 -95.86 437.169 -98.569 436.988C-131.619 433.918 -165.21 433.557 -197.537 440.6C-244.312 450.894 -288.92 483.582 -301.381 530.357C-314.745 579.48 -290.364 634.563 -248.827 663.458C-207.109 692.535 -153.29 694.341 -103.626 685.852C-75.633 680.976 -46.3761 671.946 -19.4669 675.378C-5.38026 677.184 7.26164 682.602 20.9871 686.936C24.7797 688.2 28.9334 689.103 33.2678 690.187C43.9231 692.535 55.1202 693.257 64.6919 690.187C69.3875 688.742 73.3606 686.575 77.3338 684.408C99.728 671.405 113.453 655.512 118.691 641.606C120.316 637.091 121.4 632.757 124.289 627.339C129.346 617.586 143.252 605.847 151.199 592.844Z" stroke="url(#paint46_linear)" stroke-opacity="0.4" stroke-width="0.5" stroke-miterlimit="10" stroke-linecap="round" stroke-linejoin="round"/>
<path d="M146.143 608.377C167.093 601.875 190.39 593.387 206.102 577.314C228.315 554.739 238.429 516.452 235.901 481.416C234.275 458.119 226.69 437.17 214.409 422C204.296 409.358 191.293 398.161 174.136 394.007C150.658 388.228 123.93 396.535 101.355 407.913C78.2382 419.471 56.0246 434.822 31.4632 442.407C-7.54604 454.688 -47.8195 447.645 -88.8153 443.13C-91.5243 442.949 -94.0527 442.588 -96.9422 442.227C-129.992 438.795 -163.944 438.434 -196.091 446.019C-240.879 456.494 -283.5 488.279 -295.781 533.068C-309.326 582.01 -284.945 636.731 -243.227 665.446C-201.509 694.161 -147.51 695.425 -98.2064 685.854C-72.7421 680.978 -46.0135 672.309 -21.0909 674.476C-8.08786 675.56 3.65107 679.713 16.4735 683.506C20.0855 684.59 23.8781 685.493 27.8512 686.215C37.7841 688.202 47.8976 688.924 56.747 686.576C61.0813 685.493 65.0545 683.687 68.4859 682.061C89.7965 671.948 103.703 659.848 110.746 648.831C112.913 645.219 114.719 641.968 117.97 637.634C124.291 629.146 137.655 619.755 146.143 608.377Z" stroke="url(#paint47_linear)" stroke-opacity="0.4" stroke-width="0.5" stroke-miterlimit="10" stroke-linecap="round" stroke-linejoin="round"/>
<path d="M141.266 624.086C163.299 618.307 188.041 610.541 205.198 594.829C229.218 572.616 241.137 533.968 239.873 497.668C238.97 473.648 232.288 451.434 220.368 434.819C210.616 421.094 197.252 409.174 180.095 403.937C156.256 397.074 129.166 405.021 106.05 416.218C82.3912 427.595 59.997 442.766 34.8938 449.809C-4.65722 461.187 -45.4724 452.879 -86.6489 447.822C-89.1772 447.461 -92.0668 447.1 -94.7758 446.919C-128.186 443.127 -162.32 442.946 -194.647 451.073C-237.629 461.909 -277.903 492.43 -290.183 535.413C-304.089 583.993 -279.528 638.895 -237.629 667.069C-195.73 695.242 -141.912 695.964 -92.7892 685.49C-69.492 680.614 -45.2918 672.306 -22.5364 673.39C-10.617 673.751 0.399542 676.821 12.1384 679.53C15.3892 680.252 19.0012 680.975 22.4325 681.517C31.6431 683.142 40.8536 683.684 48.9805 682.058C52.9536 681.336 56.7462 680.072 60.1776 678.808C80.5852 671.403 94.4913 662.915 103.341 655.149C106.23 652.621 108.578 650.273 112.19 647.022C119.414 640.882 132.056 633.297 141.266 624.086Z" stroke="url(#paint48_linear)" stroke-opacity="0.4" stroke-width="0.5" stroke-miterlimit="10" stroke-linecap="round" stroke-linejoin="round"/>
<path d="M136.029 639.798C159.145 634.741 185.332 627.698 203.933 611.986C229.759 590.134 243.485 550.763 243.665 513.379C243.665 488.457 237.705 465.16 226.328 447.28C216.756 432.652 203.572 419.468 186.054 413.87C162.035 406.104 134.403 413.508 110.745 424.525C86.7252 435.541 63.9698 450.35 38.5054 457.394C-1.58741 468.23 -42.9444 458.297 -84.3015 452.698C-86.8298 452.337 -89.7194 451.976 -92.4284 451.795C-126.02 447.822 -160.333 447.461 -193.022 456.31C-233.837 467.507 -272.124 496.764 -284.043 537.941C-298.311 586.16 -273.388 641.062 -231.489 668.513C-189.41 696.145 -135.591 696.506 -87.0104 684.767C-66.061 679.71 -44.3893 672.125 -23.801 671.764C-12.7845 671.583 -2.67101 673.389 7.98429 675.376C11.0545 675.918 14.1246 676.46 17.3754 676.821C25.5023 678.085 34.1711 678.807 41.5756 677.904C45.3682 677.363 48.6189 676.64 51.8697 675.918C71.1937 671.403 85.461 666.527 95.9357 661.831C99.3671 660.206 102.257 658.761 106.41 656.774C114.357 652.44 126.457 646.841 136.029 639.798Z" stroke="url(#paint49_linear)" stroke-opacity="0.4" stroke-width="0.5" stroke-miterlimit="10" stroke-linecap="round" stroke-linejoin="round"/>
<path d="M130.971 655.331C154.088 647.385 182.803 644.676 202.669 629.145C230.481 607.834 245.832 567.922 247.457 529.093C248.541 503.448 243.304 478.706 231.926 459.743C222.715 444.031 209.351 429.945 191.652 423.443C167.272 414.594 139.279 421.637 115.079 432.473C90.6979 443.128 67.5813 457.937 41.7557 464.258C0.940511 474.372 -40.5971 463.175 -82.4959 457.034C-85.2049 456.493 -87.9139 456.312 -90.6229 455.77C-124.395 451.255 -159.07 451.255 -191.577 460.646C-230.587 471.843 -266.706 500.378 -278.445 539.568C-292.893 587.607 -267.97 642.148 -225.891 669.418C-183.812 696.688 -129.632 696.688 -81.5929 683.685C-62.9913 678.809 -43.8479 671.585 -25.4268 669.779C-15.4939 668.876 -6.46403 669.599 3.46888 670.863C6.35845 671.224 9.06745 671.405 11.957 671.766C19.3616 672.669 26.9467 673.391 33.6288 673.211C37.0602 673.03 40.1303 672.849 43.2005 672.308C61.441 670.682 76.0694 669.418 88.1695 667.793C91.9621 667.251 95.7547 666.709 100.27 665.445C109.3 664 120.135 658.943 130.971 655.331Z" stroke="url(#paint50_linear)" stroke-opacity="0.4" stroke-width="0.5" stroke-miterlimit="10" stroke-linecap="round" stroke-linejoin="round"/>
<path d="M126.097 671.043C150.839 665.445 180.457 661.833 201.768 646.662C231.386 625.713 248.543 585.078 251.613 545.166C253.419 518.799 249.084 492.793 238.248 472.566C229.219 455.95 215.854 440.78 197.975 433.737C173.233 423.804 144.699 430.667 120.137 441.141C95.3952 451.797 71.9174 466.245 45.7306 472.204C4.55419 481.595 -37.8864 469.134 -79.7852 462.271C-82.4942 461.73 -85.3838 461.368 -87.9122 461.007C-121.865 456.312 -156.901 455.95 -189.408 466.064C-226.612 477.622 -260.564 505.073 -272.122 542.276C-286.932 589.954 -261.648 644.495 -219.388 671.224C-177.128 697.952 -122.768 698.133 -75.2703 683.504C-59.0164 678.448 -42.2208 671.766 -25.9669 668.876C-17.2982 667.431 -8.81006 666.889 0.219856 667.251C2.74823 667.251 5.2766 667.612 7.80498 667.612C14.4871 668.154 20.9887 668.876 27.129 669.237C30.1992 669.418 33.2693 669.598 35.9783 669.779C53.1352 671.043 67.9442 673.571 82.0309 675.016C86.5458 675.558 90.8802 675.919 95.7563 675.739C104.244 675.558 115.08 673.391 126.097 671.043Z" stroke="url(#paint51_linear)" stroke-opacity="0.4" stroke-width="0.5" stroke-miterlimit="10" stroke-linecap="round" stroke-linejoin="round"/>
<path d="M243.665 485.207C234.996 467.509 221.452 451.435 203.572 443.67C178.65 432.834 149.573 439.155 124.47 449.449C99.367 459.743 75.528 474.191 48.7995 479.609C6.90066 488.277 -35.9012 474.371 -77.9806 466.967C-114.642 460.646 -153.11 459.382 -188.326 471.121C-223.543 482.859 -255.328 509.227 -266.886 544.624C-282.057 591.941 -256.592 646.662 -214.332 672.668C-171.892 698.855 -117.17 699.397 -70.3955 682.962C-46.5565 674.655 -23.2593 662.194 1.84388 663.097C44.4651 664.541 76.0698 691.812 120.678 686.574C146.864 683.504 177.566 678.809 200.141 663.819C252.876 629.505 270.394 538.664 243.665 485.207Z" stroke="url(#paint52_linear)" stroke-opacity="0.4" stroke-width="0.5" stroke-miterlimit="10" stroke-linecap="round" stroke-linejoin="round"/>
<defs>
<linearGradient id="paint0_linear" x1="-150.516" y1="717.73" x2="506.068" y2="766.595" gradientUnits="userSpaceOnUse">
<stop stop-color="#01BFA3"/>
<stop offset="0.161458" stop-color="#7692E2"/>
<stop offset="0.9993" stop-color="#848DEA"/>
</linearGradient>
<linearGradient id="paint1_linear" x1="-148.196" y1="708.994" x2="498.756" y2="756.138" gradientUnits="userSpaceOnUse">
<stop stop-color="#01BFA3"/>
<stop offset="0.161458" stop-color="#7692E2"/>
<stop offset="0.9993" stop-color="#848DEA"/>
</linearGradient>
<linearGradient id="paint2_linear" x1="-145.896" y1="700.3" x2="491.995" y2="746.278" gradientUnits="userSpaceOnUse">
<stop stop-color="#01BFA3"/>
<stop offset="0.161458" stop-color="#7692E2"/>
<stop offset="0.9993" stop-color="#848DEA"/>
</linearGradient>
<linearGradient id="paint3_linear" x1="-143.898" y1="691.755" x2="484.532" y2="736.48" gradientUnits="userSpaceOnUse">
<stop stop-color="#01BFA3"/>
<stop offset="0.161458" stop-color="#7692E2"/>
<stop offset="0.9993" stop-color="#848DEA"/>
</linearGradient>
<linearGradient id="paint4_linear" x1="-141.824" y1="683.864" x2="477.973" y2="727.275" gradientUnits="userSpaceOnUse">
<stop stop-color="#01BFA3"/>
<stop offset="0.161458" stop-color="#7692E2"/>
<stop offset="0.9993" stop-color="#848DEA"/>
</linearGradient>
<linearGradient id="paint5_linear" x1="-140.282" y1="675.963" x2="470.556" y2="718.6" gradientUnits="userSpaceOnUse">
<stop stop-color="#01BFA3"/>
<stop offset="0.161458" stop-color="#7692E2"/>
<stop offset="0.9993" stop-color="#848DEA"/>
</linearGradient>
<linearGradient id="paint6_linear" x1="-139.187" y1="668.93" x2="463.769" y2="711.653" gradientUnits="userSpaceOnUse">
<stop stop-color="#01BFA3"/>
<stop offset="0.161458" stop-color="#7692E2"/>
<stop offset="0.9993" stop-color="#848DEA"/>
</linearGradient>
<linearGradient id="paint7_linear" x1="-138.719" y1="662.254" x2="456.665" y2="705.159" gradientUnits="userSpaceOnUse">
<stop stop-color="#01BFA3"/>
<stop offset="0.161458" stop-color="#7692E2"/>
<stop offset="0.9993" stop-color="#848DEA"/>
</linearGradient>
<linearGradient id="paint8_linear" x1="-138.336" y1="655.588" x2="450.049" y2="700.085" gradientUnits="userSpaceOnUse">
<stop stop-color="#01BFA3"/>
<stop offset="0.161458" stop-color="#7692E2"/>
<stop offset="0.9993" stop-color="#848DEA"/>
</linearGradient>
<linearGradient id="paint9_linear" x1="-138.45" y1="649.984" x2="443.414" y2="695.633" gradientUnits="userSpaceOnUse">
<stop stop-color="#01BFA3"/>
<stop offset="0.161458" stop-color="#7692E2"/>
<stop offset="0.9993" stop-color="#848DEA"/>
</linearGradient>
<linearGradient id="paint10_linear" x1="-138.56" y1="644.591" x2="437.821" y2="692.126" gradientUnits="userSpaceOnUse">
<stop stop-color="#01BFA3"/>
<stop offset="0.161458" stop-color="#7692E2"/>
<stop offset="0.9993" stop-color="#848DEA"/>
</linearGradient>
<linearGradient id="paint11_linear" x1="-139.77" y1="639.84" x2="431.28" y2="689.888" gradientUnits="userSpaceOnUse">
<stop stop-color="#01BFA3"/>
<stop offset="0.161458" stop-color="#7692E2"/>
<stop offset="0.9993" stop-color="#848DEA"/>
</linearGradient>
<linearGradient id="paint12_linear" x1="-139.666" y1="634.057" x2="426.706" y2="686.574" gradientUnits="userSpaceOnUse">
<stop stop-color="#01BFA3"/>
<stop offset="0.161458" stop-color="#7692E2"/>
<stop offset="0.9993" stop-color="#848DEA"/>
</linearGradient>
<linearGradient id="paint13_linear" x1="-141.125" y1="630.436" x2="421.203" y2="685.865" gradientUnits="userSpaceOnUse">
<stop stop-color="#01BFA3"/>
<stop offset="0.161458" stop-color="#7692E2"/>
<stop offset="0.9993" stop-color="#848DEA"/>
</linearGradient>
<linearGradient id="paint14_linear" x1="-144.688" y1="623.248" x2="418.342" y2="679.272" gradientUnits="userSpaceOnUse">
<stop stop-color="#01BFA3"/>
<stop offset="0.161458" stop-color="#7692E2"/>
<stop offset="0.9993" stop-color="#848DEA"/>
</linearGradient>
<linearGradient id="paint15_linear" x1="-149.364" y1="614.02" x2="417.738" y2="671.132" gradientUnits="userSpaceOnUse">
<stop stop-color="#01BFA3"/>
<stop offset="0.161458" stop-color="#7692E2"/>
<stop offset="0.9993" stop-color="#848DEA"/>
</linearGradient>
<linearGradient id="paint16_linear" x1="-155.418" y1="604.811" x2="417.583" y2="662.96" gradientUnits="userSpaceOnUse">
<stop stop-color="#01BFA3"/>
<stop offset="0.161458" stop-color="#7692E2"/>
<stop offset="0.9993" stop-color="#848DEA"/>
</linearGradient>
<linearGradient id="paint17_linear" x1="-161.886" y1="595.922" x2="418.258" y2="654.761" gradientUnits="userSpaceOnUse">
<stop stop-color="#01BFA3"/>
<stop offset="0.161458" stop-color="#7692E2"/>
<stop offset="0.9993" stop-color="#848DEA"/>
</linearGradient>
<linearGradient id="paint18_linear" x1="-168.919" y1="586.176" x2="418.218" y2="645.64" gradientUnits="userSpaceOnUse">
<stop stop-color="#01BFA3"/>
<stop offset="0.161458" stop-color="#7692E2"/>
<stop offset="0.9993" stop-color="#848DEA"/>
</linearGradient>
<linearGradient id="paint19_linear" x1="-176.696" y1="576.712" x2="418.679" y2="636.781" gradientUnits="userSpaceOnUse">
<stop stop-color="#01BFA3"/>
<stop offset="0.161458" stop-color="#7692E2"/>
<stop offset="0.9993" stop-color="#848DEA"/>
</linearGradient>
<linearGradient id="paint20_linear" x1="-184.861" y1="567.417" x2="419.378" y2="628.234" gradientUnits="userSpaceOnUse">
<stop stop-color="#01BFA3"/>
<stop offset="0.161458" stop-color="#7692E2"/>
<stop offset="0.9993" stop-color="#848DEA"/>
</linearGradient>
<linearGradient id="paint21_linear" x1="-193.152" y1="557.525" x2="420.137" y2="618.707" gradientUnits="userSpaceOnUse">
<stop stop-color="#01BFA3"/>
<stop offset="0.161458" stop-color="#7692E2"/>
<stop offset="0.9993" stop-color="#848DEA"/>
</linearGradient>
<linearGradient id="paint22_linear" x1="-201.629" y1="547.764" x2="421.382" y2="609.127" gradientUnits="userSpaceOnUse">
<stop stop-color="#01BFA3"/>
<stop offset="0.161458" stop-color="#7692E2"/>
<stop offset="0.9993" stop-color="#848DEA"/>
</linearGradient>
<linearGradient id="paint23_linear" x1="-210.813" y1="538.337" x2="422.351" y2="600.542" gradientUnits="userSpaceOnUse">
<stop stop-color="#01BFA3"/>
<stop offset="0.161458" stop-color="#7692E2"/>
<stop offset="0.9993" stop-color="#848DEA"/>
</linearGradient>
<linearGradient id="paint24_linear" x1="-219.95" y1="528.544" x2="423.357" y2="591.382" gradientUnits="userSpaceOnUse">
<stop stop-color="#01BFA3"/>
<stop offset="0.161458" stop-color="#7692E2"/>
<stop offset="0.9993" stop-color="#848DEA"/>
</linearGradient>
<linearGradient id="paint25_linear" x1="-229.176" y1="518.799" x2="424.671" y2="582.274" gradientUnits="userSpaceOnUse">
<stop stop-color="#01BFA3"/>
<stop offset="0.161458" stop-color="#7692E2"/>
<stop offset="0.9993" stop-color="#848DEA"/>
</linearGradient>
<linearGradient id="paint26_linear" x1="-238.616" y1="508.991" x2="425.731" y2="573.298" gradientUnits="userSpaceOnUse">
<stop stop-color="#01BFA3"/>
<stop offset="0.161458" stop-color="#7692E2"/>
<stop offset="0.9993" stop-color="#848DEA"/>
</linearGradient>
<linearGradient id="paint27_linear" x1="-237.155" y1="511.346" x2="413.623" y2="574.963" gradientUnits="userSpaceOnUse">
<stop stop-color="#01BFA3"/>
<stop offset="0.161458" stop-color="#7692E2"/>
<stop offset="0.9993" stop-color="#848DEA"/>
</linearGradient>
<linearGradient id="paint28_linear" x1="-235.633" y1="513.457" x2="401.239" y2="576.576" gradientUnits="userSpaceOnUse">
<stop stop-color="#01BFA3"/>
<stop offset="0.161458" stop-color="#7692E2"/>
<stop offset="0.9993" stop-color="#848DEA"/>
</linearGradient>
<linearGradient id="paint29_linear" x1="-233.641" y1="516.227" x2="389.391" y2="579.096" gradientUnits="userSpaceOnUse">
<stop stop-color="#01BFA3"/>
<stop offset="0.161458" stop-color="#7692E2"/>
<stop offset="0.9993" stop-color="#848DEA"/>
</linearGradient>
<linearGradient id="paint30_linear" x1="-231.944" y1="517.459" x2="377.373" y2="579.669" gradientUnits="userSpaceOnUse">
<stop stop-color="#01BFA3"/>
<stop offset="0.161458" stop-color="#7692E2"/>
<stop offset="0.9993" stop-color="#848DEA"/>
</linearGradient>
<linearGradient id="paint31_linear" x1="-229.716" y1="519.89" x2="366.087" y2="582.074" gradientUnits="userSpaceOnUse">
<stop stop-color="#01BFA3"/>
<stop offset="0.161458" stop-color="#7692E2"/>
<stop offset="0.9993" stop-color="#848DEA"/>
</linearGradient>
<linearGradient id="paint32_linear" x1="-228.238" y1="521.826" x2="353.811" y2="584.548" gradientUnits="userSpaceOnUse">
<stop stop-color="#01BFA3"/>
<stop offset="0.161458" stop-color="#7692E2"/>
<stop offset="0.9993" stop-color="#848DEA"/>
</linearGradient>
<linearGradient id="paint33_linear" x1="-226.418" y1="524.566" x2="342.721" y2="587.592" gradientUnits="userSpaceOnUse">
<stop stop-color="#01BFA3"/>
<stop offset="0.161458" stop-color="#7692E2"/>
<stop offset="0.9993" stop-color="#848DEA"/>
</linearGradient>
<linearGradient id="paint34_linear" x1="-224.238" y1="525.77" x2="331.571" y2="588.835" gradientUnits="userSpaceOnUse">
<stop stop-color="#01BFA3"/>
<stop offset="0.161458" stop-color="#7692E2"/>
<stop offset="0.9993" stop-color="#848DEA"/>
</linearGradient>
<linearGradient id="paint35_linear" x1="-222.623" y1="527.156" x2="319.668" y2="591.13" gradientUnits="userSpaceOnUse">
<stop stop-color="#01BFA3"/>
<stop offset="0.161458" stop-color="#7692E2"/>
<stop offset="0.9993" stop-color="#848DEA"/>
</linearGradient>
<linearGradient id="paint36_linear" x1="-220.123" y1="529.324" x2="309.607" y2="593.801" gradientUnits="userSpaceOnUse">
<stop stop-color="#01BFA3"/>
<stop offset="0.161458" stop-color="#7692E2"/>
<stop offset="0.9993" stop-color="#848DEA"/>
</linearGradient>
<linearGradient id="paint37_linear" x1="-218.09" y1="530.707" x2="298.567" y2="595.937" gradientUnits="userSpaceOnUse">
<stop stop-color="#01BFA3"/>
<stop offset="0.161458" stop-color="#7692E2"/>
<stop offset="0.9993" stop-color="#848DEA"/>
</linearGradient>
<linearGradient id="paint38_linear" x1="-215.701" y1="532.589" x2="288.038" y2="598.676" gradientUnits="userSpaceOnUse">
<stop stop-color="#01BFA3"/>
<stop offset="0.161458" stop-color="#7692E2"/>
<stop offset="0.9993" stop-color="#848DEA"/>
</linearGradient>
<linearGradient id="paint39_linear" x1="-213.388" y1="533.957" x2="277.393" y2="601.193" gradientUnits="userSpaceOnUse">
<stop stop-color="#01BFA3"/>
<stop offset="0.161458" stop-color="#7692E2"/>
<stop offset="0.9993" stop-color="#848DEA"/>
</linearGradient>
<linearGradient id="paint40_linear" x1="-211.057" y1="535.79" x2="267.148" y2="604.384" gradientUnits="userSpaceOnUse">
<stop stop-color="#01BFA3"/>
<stop offset="0.161458" stop-color="#7692E2"/>
<stop offset="0.9993" stop-color="#848DEA"/>
</linearGradient>
<linearGradient id="paint41_linear" x1="-208.772" y1="537.481" x2="256.65" y2="607.482" gradientUnits="userSpaceOnUse">
<stop stop-color="#01BFA3"/>
<stop offset="0.161458" stop-color="#7692E2"/>
<stop offset="0.9993" stop-color="#848DEA"/>
</linearGradient>
<linearGradient id="paint42_linear" x1="-206.112" y1="538.588" x2="246.718" y2="609.802" gradientUnits="userSpaceOnUse">
<stop stop-color="#01BFA3"/>
<stop offset="0.161458" stop-color="#7692E2"/>
<stop offset="0.9993" stop-color="#848DEA"/>
</linearGradient>
<linearGradient id="paint43_linear" x1="-203.398" y1="540.139" x2="236.966" y2="612.779" gradientUnits="userSpaceOnUse">
<stop stop-color="#01BFA3"/>
<stop offset="0.161458" stop-color="#7692E2"/>
<stop offset="0.9993" stop-color="#848DEA"/>
</linearGradient>
<linearGradient id="paint44_linear" x1="-200.765" y1="541.542" x2="227.741" y2="615.698" gradientUnits="userSpaceOnUse">
<stop stop-color="#01BFA3"/>
<stop offset="0.161458" stop-color="#7692E2"/>
<stop offset="0.9993" stop-color="#848DEA"/>
</linearGradient>
<linearGradient id="paint45_linear" x1="-198.056" y1="543.194" x2="218.765" y2="618.618" gradientUnits="userSpaceOnUse">
<stop stop-color="#01BFA3"/>
<stop offset="0.161458" stop-color="#7692E2"/>
<stop offset="0.9993" stop-color="#848DEA"/>
</linearGradient>
<linearGradient id="paint46_linear" x1="-194.86" y1="544.052" x2="210.714" y2="620.425" gradientUnits="userSpaceOnUse">
<stop stop-color="#01BFA3"/>
<stop offset="0.161458" stop-color="#7692E2"/>
<stop offset="0.9993" stop-color="#848DEA"/>
</linearGradient>
<linearGradient id="paint47_linear" x1="-188.926" y1="548.916" x2="218.837" y2="620.789" gradientUnits="userSpaceOnUse">
<stop stop-color="#01BFA3"/>
<stop offset="0.161458" stop-color="#7692E2"/>
<stop offset="0.9993" stop-color="#848DEA"/>
</linearGradient>
<linearGradient id="paint48_linear" x1="-182.856" y1="553.65" x2="227.693" y2="620.545" gradientUnits="userSpaceOnUse">
<stop stop-color="#01BFA3"/>
<stop offset="0.161458" stop-color="#7692E2"/>
<stop offset="0.9993" stop-color="#848DEA"/>
</linearGradient>
<linearGradient id="paint49_linear" x1="-176.317" y1="558.198" x2="236.216" y2="620.217" gradientUnits="userSpaceOnUse">
<stop stop-color="#01BFA3"/>
<stop offset="0.161458" stop-color="#7692E2"/>
<stop offset="0.9993" stop-color="#848DEA"/>
</linearGradient>
<linearGradient id="paint50_linear" x1="-170.21" y1="562.226" x2="244.866" y2="618.708" gradientUnits="userSpaceOnUse">
<stop stop-color="#01BFA3"/>
<stop offset="0.161458" stop-color="#7692E2"/>
<stop offset="0.9993" stop-color="#848DEA"/>
</linearGradient>
<linearGradient id="paint51_linear" x1="-163.3" y1="567.093" x2="253.598" y2="618.375" gradientUnits="userSpaceOnUse">
<stop stop-color="#01BFA3"/>
<stop offset="0.161458" stop-color="#7692E2"/>
<stop offset="0.9993" stop-color="#848DEA"/>
</linearGradient>
<linearGradient id="paint52_linear" x1="-157.486" y1="571.77" x2="261.414" y2="617.772" gradientUnits="userSpaceOnUse">
<stop stop-color="#01BFA3"/>
<stop offset="0.161458" stop-color="#7692E2"/>
<stop offset="0.9993" stop-color="#848DEA"/>
</linearGradient>
</defs>
</svg>
