<svg width="24" height="23" viewBox="0 0 24 23" fill="none" xmlns="http://www.w3.org/2000/svg">
<path d="M19.5655 0.105469H4.30288C3.29049 0.105469 2.32014 0.507914 1.60473 1.22338C0.889308 1.93884 0.486816 2.90919 0.486816 3.92153V19.1841C0.486816 20.1965 0.889262 21.1669 1.60473 21.8823C2.32019 22.5977 3.29054 23.0002 4.30288 23.0002H19.5655C20.5779 23.0002 21.5482 22.5978 22.2636 21.8823C22.9791 21.1668 23.3816 20.1965 23.3816 19.1841V3.92153C23.3816 2.90915 22.9791 1.9388 22.2636 1.22338C21.5482 0.50796 20.5778 0.105469 19.5655 0.105469ZM21.4731 19.1842H21.474C21.474 19.6904 21.2728 20.176 20.915 20.5337C20.5573 20.8915 20.0717 21.0927 19.5655 21.0927H4.30288C3.24846 21.0927 2.39439 20.2386 2.39439 19.1842V3.92158C2.39439 2.86716 3.24848 2.01309 4.30288 2.01309H19.5655C20.0717 2.01309 20.5573 2.21431 20.915 2.57204C21.2728 2.92977 21.474 3.4154 21.474 3.92158L21.4731 19.1842Z" fill="white"/>
<path d="M11.9342 5.8291C10.4165 5.8291 8.96062 6.43188 7.88731 7.50596C6.81322 8.57916 6.21045 10.0352 6.21045 11.5529C6.21045 13.0706 6.81322 14.5264 7.88731 15.5997C8.96051 16.6738 10.4165 17.2766 11.9342 17.2766C13.4519 17.2766 14.9078 16.6738 15.9811 15.5997C17.0552 14.5265 17.658 13.0706 17.658 11.5529C17.658 10.0352 17.0552 8.57927 15.9811 7.50596C14.9079 6.43188 13.4519 5.8291 11.9342 5.8291V5.8291ZM11.9342 15.3689C10.9218 15.3689 9.95146 14.9665 9.23605 14.251C8.52063 13.5355 8.11814 12.5652 8.11814 11.5529C8.11814 10.5405 8.52058 9.57012 9.23605 8.8547C9.95151 8.13928 10.9219 7.73679 11.9342 7.73679C12.9465 7.73679 13.9169 8.13924 14.6324 8.8547C15.3478 9.57016 15.7503 10.5405 15.7503 11.5529C15.7503 12.5652 15.3478 13.5356 14.6324 14.251C13.9169 14.9664 12.9465 15.3689 11.9342 15.3689Z" fill="white"/>
<path d="M19.5655 5.3528C19.5655 6.14249 18.9251 6.78373 18.1345 6.78373C17.3449 6.78373 16.7036 6.14249 16.7036 5.3528C16.7036 4.56222 17.3449 3.92188 18.1345 3.92188C18.9251 3.92188 19.5655 4.56222 19.5655 5.3528Z" fill="white"/>
</svg>
