<svg width="48" height="48" viewBox="0 0 48 48" fill="none" xmlns="http://www.w3.org/2000/svg">
<circle cx="24" cy="24" r="23.5" stroke="#01BFA3"/>
<path fill-rule="evenodd" clip-rule="evenodd" d="M23.3004 29.3306L20.9869 31.6361C20.1563 32.4636 18.3166 32.1089 17.0707 30.8677C16.4186 30.2171 16.0032 29.3897 15.8848 28.6212C15.7656 27.9125 15.944 27.321 16.3001 26.9662L20.6902 22.5927C21.1055 22.238 21.6992 22.0602 22.3514 22.179C23.1228 22.297 23.9534 22.7107 24.6063 23.3612C24.9024 23.6562 25.1993 24.0109 25.3769 24.3657C25.6146 24.7795 26.1483 24.9564 26.5636 24.7205C26.9789 24.4837 27.1574 23.952 26.9197 23.5382C26.6228 23.0655 26.2676 22.5927 25.8523 22.179C24.9024 21.2327 23.7757 20.642 22.5889 20.465C21.343 20.2872 20.1563 20.583 19.3848 21.4105L14.994 25.784C14.2234 26.5525 13.8673 27.7347 14.0449 28.976C14.2234 30.1583 14.8163 31.2816 15.7654 32.227C16.8929 33.3503 18.3764 34 19.6815 34C20.6306 34 21.5204 33.705 22.1734 32.9955L24.4869 30.6899C24.843 30.3352 24.843 29.8034 24.4869 29.4487C24.1908 28.976 23.6565 28.9758 23.3004 29.3306ZM33.9801 19.0459C33.8617 17.8046 33.2679 16.6224 32.3188 15.677C31.3698 14.7315 30.1831 14.14 28.9372 14.022C27.632 13.904 26.4453 14.2587 25.6147 15.1452L22.7667 17.9825C22.4106 18.3364 22.4106 18.869 22.7667 19.2237C23.1228 19.5777 23.6565 19.5777 24.0126 19.2237L26.8606 16.3865C27.3352 15.9137 27.9881 15.736 28.7595 15.7949C29.5902 15.8539 30.4208 16.2677 31.073 16.9182C31.726 17.5687 32.1413 18.3962 32.2005 19.2238C32.2597 19.9915 32.0821 20.642 31.6068 21.1147L26.7422 25.9618C26.2677 26.4345 25.6147 26.6115 24.8433 26.5525C24.0127 26.4935 23.1821 26.0797 22.5298 25.43C22.1737 25.0753 21.8769 24.6615 21.6992 24.2478C21.5208 23.775 20.987 23.5973 20.5125 23.834C20.038 24.011 19.8595 24.5428 20.0972 25.0163C20.3933 25.666 20.8086 26.1977 21.2839 26.7303C22.2329 27.6757 23.4196 28.2665 24.6656 28.3852H25.1401C26.2676 28.3852 27.2166 27.9715 27.9881 27.262L32.8526 22.415C33.6832 21.5285 34.0985 20.3461 33.9801 19.0459Z" fill="#01BFA6"/>
</svg>
