<svg width="34" height="26" viewBox="0 0 34 26" fill="none" xmlns="http://www.w3.org/2000/svg">
<path d="M13.3665 10.31C13.3665 7.11962 14.8588 4.27226 17.1858 2.43692C15.4763 1.09329 13.3207 0.287109 10.9765 0.287109C5.44191 0.287109 0.953613 4.77541 0.953613 10.31C0.953613 15.8446 5.44191 20.3329 10.9765 20.3329C13.3207 20.3329 15.4763 19.5268 17.1858 18.1774C14.8588 16.3478 13.3665 13.5004 13.3665 10.31Z" fill="#EE232B"/>
<path d="M23.3904 0.287109C21.0462 0.287109 18.8907 1.09329 17.1812 2.44264C19.5082 4.27798 21.0005 7.11962 21.0005 10.3157C21.0005 13.5062 19.5082 16.3535 17.1812 18.1888C18.8907 19.5382 21.0462 20.3444 23.3904 20.3444C28.9251 20.3444 33.4134 15.8561 33.4134 10.3215C33.4191 4.77541 28.9308 0.287109 23.3904 0.287109Z" fill="#F89735"/>
<path d="M17.1838 18.1837C19.2932 18.1837 21.0032 14.6588 21.0032 10.3106C21.0032 5.96241 19.2932 2.4375 17.1838 2.4375C15.0745 2.4375 13.3645 5.96241 13.3645 10.3106C13.3645 14.6588 15.0745 18.1837 17.1838 18.1837Z" fill="#F2632D"/>
<path d="M5.85112 22.6885C5.38227 22.6885 5.10783 22.9286 4.95346 23.1973C4.82767 22.9458 4.57038 22.6885 4.04436 22.6885C3.67844 22.6885 3.43258 22.8371 3.26677 23.0258V22.7228H2.64355V25.4272H3.26677V23.6547C3.3411 23.4718 3.51263 23.2202 3.88427 23.2202C4.47318 23.2202 4.46746 23.7805 4.46746 23.7805V25.3929H5.06781V23.6948C5.06781 23.6948 5.06781 23.6833 5.06781 23.6605C5.14214 23.4775 5.31366 23.2145 5.69102 23.2145C6.27993 23.2145 6.27422 23.7748 6.27422 23.7748V25.3872H6.87456V23.6891C6.88028 23.6948 6.89743 22.6885 5.85112 22.6885Z" fill="white"/>
<path d="M9.64725 23.0149C9.41283 22.7748 9.10408 22.6318 8.76103 22.6318C8.04633 22.6318 7.46313 23.2665 7.46313 24.0555C7.46313 24.8445 8.04061 25.4735 8.75531 25.4735C9.09836 25.4735 9.41283 25.3248 9.64153 25.0904V25.4277H10.2705V22.7233H9.64725V23.0149ZM8.84107 24.936C8.40654 24.936 8.05205 24.5415 8.05205 24.0612C8.05205 23.5752 8.40654 23.1864 8.84107 23.1864C9.27561 23.1864 9.6301 23.581 9.6301 24.0612C9.6301 24.5472 9.27561 24.936 8.84107 24.936Z" fill="white"/>
<path d="M25.9246 23.0149C25.6902 22.7748 25.3814 22.6318 25.0384 22.6318C24.3237 22.6318 23.7405 23.2665 23.7405 24.0555C23.7405 24.8445 24.3237 25.4792 25.0384 25.4792C25.3814 25.4792 25.6959 25.3305 25.9246 25.0961V25.4334H26.5478V22.729H25.9246V23.0149ZM25.1184 24.936C24.6839 24.936 24.3294 24.5415 24.3294 24.0612C24.3294 23.5752 24.6839 23.1864 25.1184 23.1864C25.553 23.1864 25.9074 23.581 25.9074 24.0612C25.9074 24.5472 25.553 24.936 25.1184 24.936Z" fill="white"/>
<path d="M31.2718 21.665V23.0144C31.0373 22.7742 30.7286 22.6313 30.3855 22.6313C29.6708 22.6313 29.0876 23.266 29.0876 24.055C29.0876 24.844 29.6708 25.4787 30.3855 25.4787C30.7286 25.4787 31.0431 25.33 31.2718 25.0956V25.4329H31.895V21.6708H31.2718V21.665ZM30.4656 24.9355C30.031 24.9355 29.6766 24.541 29.6766 24.0607C29.6766 23.5747 30.031 23.1859 30.4656 23.1859C30.9001 23.1859 31.2546 23.5804 31.2546 24.0607C31.2546 24.5467 30.9001 24.9355 30.4656 24.9355Z" fill="white"/>
<path d="M19.7939 23.0891V22.7632H19.2793V25.4104H19.7939V23.7237C20.0798 22.9004 20.7316 23.2492 20.7316 23.2492L20.8917 22.7117C20.2456 22.5516 19.9254 22.8775 19.7939 23.0891Z" fill="white"/>
<path d="M27.819 23.0891V22.7632H27.3044V25.4104H27.819V23.7237C28.1049 22.9004 28.7567 23.2492 28.7567 23.2492L28.9168 22.7117C28.2707 22.5516 27.9505 22.8775 27.819 23.0891Z" fill="white"/>
<path d="M11.9455 23.7752C11.7568 23.7409 11.4366 23.678 11.3909 23.5979C11.3852 23.5808 11.3852 23.5408 11.4081 23.4721C11.4538 23.3464 11.5281 23.2606 11.6425 23.2149C11.9913 23.0662 12.5859 23.2606 12.7917 23.3521L12.9975 22.8832C12.9861 22.8775 12.7631 22.7803 12.4715 22.7117C12.0541 22.6145 11.7054 22.6259 11.4366 22.746C11.1908 22.8546 11.0135 23.049 10.9221 23.3121C10.8477 23.5236 10.8592 23.7066 10.9449 23.8609C11.1107 24.1468 11.4881 24.2154 11.854 24.284C12.3172 24.3698 12.5287 24.4384 12.5344 24.6042C12.5401 24.7472 12.4887 24.8386 12.3629 24.9015C12.037 25.0788 11.3738 24.9873 10.9964 24.7129L10.6934 25.1302C11.025 25.3704 11.4938 25.5019 11.9169 25.5019C12.1742 25.5019 12.4201 25.4504 12.6087 25.3532C12.9061 25.1931 13.0662 24.9187 13.049 24.5756C13.0147 23.9753 12.3972 23.8609 11.9455 23.7752Z" fill="white"/>
<path d="M14.7206 24.8959C14.6119 24.8387 14.5833 24.6958 14.5776 24.6672V23.2321H15.5382V22.7175H14.5776V21.957H14.063V22.7175H13.5142V23.2321H14.063V24.6843V24.7072C14.0688 24.7529 14.1088 25.1532 14.469 25.3476C14.5891 25.4104 14.7263 25.4448 14.8749 25.4448C15.1094 25.4448 15.3838 25.3647 15.6926 25.2046L15.4581 24.7472C15.0122 24.9816 14.8063 24.9416 14.7206 24.8959Z" fill="white"/>
<path d="M17.3192 22.6602C16.8332 22.6602 16.4444 22.8831 16.2272 23.2891C15.9642 23.7808 16.0042 24.4612 16.2043 24.7642C16.3872 25.0444 16.7932 25.3589 17.2735 25.4446C17.3592 25.4618 17.445 25.4675 17.5308 25.4675C17.8567 25.4675 18.1769 25.3589 18.4742 25.1416L18.1711 24.7242C17.9081 24.9129 17.6394 24.9872 17.365 24.9358C17.0105 24.8729 16.736 24.627 16.6331 24.4726C16.6102 24.4383 16.5874 24.3811 16.5759 24.3011H18.5771L18.6 24.0667C18.6 24.0438 18.6514 23.4377 18.2683 23.0204C18.0396 22.7859 17.7194 22.6602 17.3192 22.6602ZM16.5874 23.798C16.6102 23.7065 16.6388 23.615 16.6846 23.5349C16.8161 23.2948 17.0219 23.1747 17.3249 23.1747C17.5765 23.1747 17.7595 23.2433 17.891 23.3749C18.0053 23.5006 18.0568 23.6607 18.0797 23.798H16.5874Z" fill="white"/>
<path d="M22.3939 23.1969C22.7941 23.1226 23.1886 23.4028 23.1943 23.4028L23.4974 22.9854C23.4745 22.9682 22.9256 22.5794 22.3081 22.6881C21.805 22.7796 21.2218 23.0197 21.1703 24.0832C21.1474 24.5291 21.3704 24.9408 21.7649 25.1867C21.9936 25.3296 22.2566 25.3982 22.5254 25.3982C22.817 25.3982 23.1257 25.3182 23.4173 25.1523L23.1657 24.7007C22.7655 24.9236 22.3481 24.9408 22.0337 24.7464C21.7992 24.5977 21.6677 24.3576 21.6792 24.106C21.702 23.6601 21.7649 23.3113 22.3939 23.1969Z" fill="white"/>
</svg>
