<svg width="32" height="32" viewBox="0 0 32 32" fill="none" xmlns="http://www.w3.org/2000/svg">
<path fill-rule="evenodd" clip-rule="evenodd" d="M13.5398 11H14.4564C14.7546 11 14.9962 11.2981 14.9962 11.5398V19.6118C14.9962 19.9099 14.7546 20.1516 14.4564 20.1516H13.5398C13.2417 20.1516 13 19.8535 13 19.6118V11.5398C13 11.2417 13.2417 11 13.5398 11V11Z" fill="white"/>
<path fill-rule="evenodd" clip-rule="evenodd" d="M17.7709 11H18.6875C18.9856 11 19.2273 11.2981 19.2273 11.5398L18.6875 20.1516C18.9856 20.1516 18.6875 20.4497 18.6875 20.1516H17.7709C17.4727 20.1516 17.2311 19.8535 17.2311 19.6118V11.5398C17.2311 11.2417 17.4727 11 17.7709 11Z" fill="white"/>
<circle cx="16" cy="16" r="15.376" stroke="white" stroke-width="1.24797"/>
</svg>
