<svg width="431" height="86" viewBox="0 0 431 86" fill="none" xmlns="http://www.w3.org/2000/svg">
<circle opacity="0.1" cx="43" cy="43" r="42" fill="black" stroke="white" stroke-width="2"/>
<path d="M31.8295 52.5979C31.8872 55.1974 34.4578 56.7731 36.7106 55.5343L54.8202 44.8829C55.8054 44.3052 56.4761 43.243 56.4761 41.9946C56.4761 40.7463 55.8054 39.684 54.8202 39.1032L36.7106 28.4682C34.4578 27.2294 31.8872 28.7891 31.8295 31.3917V52.5979Z" fill="white"/>
<circle cx="271" cy="43" r="43" fill="#03A38F"/>
<path fill-rule="evenodd" clip-rule="evenodd" d="M265.331 28.0442H262.898C262.106 28.0442 261.465 28.7847 261.465 29.6984V54.4342C261.465 55.1748 262.106 56.0884 262.898 56.0884H265.331C266.122 56.0884 266.764 55.3479 266.764 54.4342V29.6984C266.764 28.9578 266.122 28.0442 265.331 28.0442ZM276.564 28.0443H274.13C273.339 28.0443 272.697 28.7848 272.697 29.6985V54.4343C272.697 55.1749 273.339 56.0885 274.13 56.0885H276.564C277.355 56.0885 277.997 55.348 277.997 54.4343V29.6985C277.997 28.9579 277.355 28.0443 276.564 28.0443Z" fill="white"/>
<circle cx="157" cy="43" r="43" fill="#03A38F"/>
<path d="M146.587 53.8503C146.646 56.5116 149.278 58.1248 151.585 56.8566L170.125 45.9515C171.134 45.3601 171.821 44.2726 171.821 42.9945C171.821 41.7164 171.134 40.6289 170.125 40.0342L151.585 29.146C149.278 27.8777 146.646 29.4745 146.587 32.1391V53.8503Z" fill="white"/>
<circle opacity="0.1" cx="388" cy="43" r="42" fill="black" stroke="white" stroke-width="2"/>
<path fill-rule="evenodd" clip-rule="evenodd" d="M383.866 28H381.433C380.642 28 380 28.7405 380 29.6542V54.39C380 55.1306 380.642 56.0442 381.433 56.0442H383.866C384.658 56.0442 385.299 55.3037 385.299 54.39V29.6542C385.299 28.9136 384.658 28 383.866 28ZM395.099 28.0001H392.666C391.874 28.0001 391.233 28.7406 391.233 29.6543V54.3901C391.233 55.1307 391.874 56.0443 392.666 56.0443H395.099C395.891 56.0443 396.532 55.3038 396.532 54.3901V29.6543C396.532 28.9137 395.891 28.0001 395.099 28.0001Z" fill="white"/>
</svg>
