<svg width="19" height="19" viewBox="0 0 19 19" fill="none" xmlns="http://www.w3.org/2000/svg">
<path d="M5.24229 13.2785L2.92347 3.80435H3.77461L18.0022 4.63955C18.0164 4.64277 18.0349 4.64673 18.0543 4.65025C18.0625 4.65173 18.0716 4.65327 18.0814 4.65479L16.9144 10.5461C16.9144 10.5463 16.9144 10.5465 16.9143 10.5466C16.8978 10.6276 16.7856 10.767 16.5765 10.782L5.87882 10.7812L4.9186 10.7811L5.15106 11.7127L5.36602 12.5742L5.50785 13.1426H6.09371H16.1423C16.2002 13.1426 16.2434 13.1643 16.2697 13.1892C16.2953 13.2135 16.3016 13.2361 16.3016 13.2541C16.3016 13.2722 16.2953 13.2948 16.2697 13.319C16.2434 13.344 16.2002 13.3656 16.1423 13.3656H5.37595C5.29613 13.3656 5.25101 13.3127 5.24239 13.2789C5.24236 13.2787 5.24233 13.2786 5.24229 13.2785ZM2.82179 2.23723L2.8384 2.30435H2.55634L2.55126 2.28363L2.23246 2.13001L0.821256 1.45003L0.821265 1.45002L0.816214 1.44763C0.788545 1.43455 0.767316 1.41106 0.756587 1.38096C0.747554 1.35562 0.748134 1.33241 0.756164 1.31144C0.767692 1.29421 0.790577 1.27297 0.830544 1.25985C0.873807 1.24565 0.924107 1.24589 0.972989 1.26647L2.6475 2.05966C2.67386 2.08274 2.70535 2.11153 2.73691 2.14303C2.7738 2.17987 2.80263 2.21233 2.82179 2.23723ZM2.59176 2.01278C2.59158 2.01263 2.59174 2.01276 2.59224 2.01316L2.59176 2.01278ZM2.83778 2.25998C2.83772 2.25998 2.837 2.25887 2.83579 2.25667C2.83722 2.25889 2.83783 2.25999 2.83778 2.25998ZM17.573 5.69185L17.7369 4.84931L16.88 4.79994L4.29494 4.07486L3.28429 4.01663L3.52294 5.00042L4.74351 10.032L4.88255 10.6052H5.47237H15.9994H16.6177L16.7357 9.99838L17.573 5.69185Z" stroke="white" stroke-width="1.5"/>
<path d="M7.30655 16.655C7.30655 17.1416 6.87732 17.605 6.26216 17.605C5.64633 17.605 5.21777 17.1419 5.21777 16.655C5.21777 16.1682 5.64633 15.7051 6.26216 15.7051C6.87732 15.7051 7.30655 16.1684 7.30655 16.655Z" stroke="white" stroke-width="1.5"/>
<path d="M15.3933 16.655C15.3933 17.1416 14.9641 17.605 14.349 17.605C13.7331 17.605 13.3046 17.1419 13.3046 16.655C13.3046 16.1682 13.7331 15.7051 14.349 15.7051C14.9641 15.7051 15.3933 16.1684 15.3933 16.655Z" stroke="white" stroke-width="1.5"/>
</svg>
