<svg width="45" height="20" viewBox="0 0 45 20" fill="none" xmlns="http://www.w3.org/2000/svg">
<path d="M2.80686 10.3945C2.71425 10.3945 2.63848 10.4681 2.62651 10.5696L2.20068 14.4605L2.62651 18.2651C2.63848 18.3666 2.71425 18.4405 2.80686 18.4405C2.89814 18.4405 2.97214 18.3679 2.98676 18.2655L3.47153 14.4601L2.98676 10.5691C2.97214 10.4659 2.89814 10.3945 2.80686 10.3945Z" fill="white"/>
<path d="M1.20483 11.8857C1.11488 11.8857 1.0431 11.9549 1.03114 12.0555L0.713867 14.4611L1.03114 16.826C1.04266 16.9261 1.11444 16.9953 1.20483 16.9953C1.29257 16.9953 1.36391 16.9261 1.37809 16.8269L1.75341 14.4611L1.37809 12.0532C1.36391 11.9549 1.29257 11.8857 1.20483 11.8857Z" fill="white"/>
<path d="M4.5084 9.63184C4.39408 9.63184 4.3028 9.72135 4.29128 9.84453L3.88672 14.4609L4.29128 18.9084C4.3028 19.032 4.39408 19.1211 4.5084 19.1211C4.62051 19.1211 4.71179 19.032 4.72509 18.9088L5.18415 14.4604L4.72509 9.84409C4.71179 9.72134 4.62051 9.63184 4.5084 9.63184Z" fill="white"/>
<path d="M6.22513 9.46875C6.09042 9.46875 5.98098 9.57598 5.97034 9.71867L5.58838 14.4622L5.97034 19.0502C5.98098 19.1919 6.09042 19.2996 6.22513 19.2996C6.35762 19.2996 6.46663 19.1919 6.47903 19.0502L6.91284 14.4622L6.47903 9.71778C6.46663 9.57598 6.35762 9.46875 6.22513 9.46875Z" fill="white"/>
<path d="M8.24475 10.0608C8.23411 9.89902 8.10827 9.77539 7.95406 9.77539C7.79765 9.77539 7.67269 9.89858 7.66294 10.0621L7.30225 14.4622L7.66294 19.0887C7.67269 19.2513 7.79809 19.375 7.95406 19.375C8.10871 19.375 8.23411 19.2513 8.24475 19.0887L8.65374 14.4622L8.24475 10.0608Z" fill="white"/>
<path d="M9.69867 6.98047C9.52319 6.98047 9.37963 7.12315 9.37076 7.30527L9.03223 14.4637L9.37076 19.0898C9.38007 19.2697 9.52364 19.4129 9.69867 19.4129C9.87237 19.4129 10.0159 19.2702 10.0266 19.0885V19.0903L10.4094 14.4642L10.0266 7.30527C10.0155 7.12315 9.87192 6.98047 9.69867 6.98047Z" fill="white"/>
<path d="M11.429 5.33203C11.2327 5.33203 11.0728 5.49066 11.0639 5.69317C11.0639 5.69405 10.7471 14.4889 10.7471 14.4889L11.0643 19.0862C11.0732 19.2878 11.2327 19.4465 11.429 19.4465C11.624 19.4465 11.7853 19.2878 11.7937 19.0853V19.088L12.1522 14.4889L11.7937 5.69317C11.7853 5.49066 11.624 5.33203 11.429 5.33203Z" fill="white"/>
<path d="M13.2278 4.53711C13.0103 4.53711 12.8335 4.71258 12.8259 4.93591C12.8259 4.93635 12.5312 14.4664 12.5312 14.4664L12.8259 19.0162C12.8339 19.2378 13.0103 19.4128 13.2278 19.4128C13.4441 19.4128 13.6209 19.2378 13.6297 19.0149V19.0176L13.9625 14.4668L13.6297 4.93591C13.6204 4.71258 13.4441 4.53711 13.2278 4.53711Z" fill="white"/>
<path d="M15.4516 4.61518C15.4441 4.37058 15.2513 4.17871 15.0134 4.17871C14.7736 4.17871 14.5809 4.37102 14.5742 4.61518L14.3013 14.466L14.5747 18.9875C14.5813 19.2294 14.7736 19.4209 15.0134 19.4209C15.2513 19.4209 15.4445 19.2294 15.4516 18.9862L15.7591 14.4673L15.4516 4.61518Z" fill="white"/>
<path d="M16.8131 4.39453C16.5516 4.39453 16.3429 4.60235 16.3367 4.86777L16.0859 14.4678L16.3376 18.9454C16.3434 19.2082 16.5516 19.4169 16.8131 19.4169C17.0727 19.4169 17.2815 19.2078 17.2885 18.9428V18.9463L17.5712 14.4669L17.2885 4.86645C17.2815 4.60147 17.0727 4.39453 16.8131 4.39453Z" fill="white"/>
<path d="M18.627 4.70801C18.3452 4.70801 18.1192 4.93267 18.1139 5.21892L17.8848 14.468L18.1139 18.919C18.1192 19.2026 18.3452 19.4264 18.627 19.4264C18.9084 19.4264 19.1339 19.2026 19.1392 18.9159V18.9195L19.3962 14.4693L19.1392 5.21936C19.1339 4.93267 18.9084 4.70801 18.627 4.70801Z" fill="white"/>
<path d="M20.758 3.00854C20.6711 2.9496 20.5661 2.91504 20.454 2.91504C20.345 2.91504 20.2435 2.94827 20.158 3.0041C20.0078 3.10203 19.9072 3.27086 19.9046 3.46317L19.9028 3.56686L19.6963 14.4665C19.6963 14.4727 19.9046 18.8905 19.9046 18.8905C19.9046 18.8976 19.9054 18.9025 19.9059 18.9092C19.9121 19.0323 19.9586 19.1458 20.0335 19.2357C20.135 19.3567 20.2861 19.4347 20.454 19.4347C20.6033 19.4347 20.7394 19.3731 20.8386 19.2738C20.9383 19.175 21.0013 19.0385 21.0039 18.887L21.027 18.4501L21.2357 14.4692L21.0044 3.46273C21.0008 3.27352 20.9033 3.10691 20.758 3.00854Z" fill="white"/>
<path d="M22.5722 1.96505C22.4853 1.91188 22.3825 1.88086 22.274 1.88086C22.134 1.88086 22.005 1.93137 21.9035 2.01468C21.7733 2.12236 21.6891 2.28453 21.6864 2.46621L21.6851 2.52647L21.4458 14.471L21.5681 16.6786L21.6864 18.8277C21.6913 19.1454 21.9541 19.4086 22.274 19.4086C22.5926 19.4086 22.8553 19.1454 22.8598 18.8237V18.8281V18.829L23.1212 14.4714L22.8607 2.46532C22.8576 2.25307 22.7415 2.06741 22.5722 1.96505Z" fill="white"/>
<path d="M38.7096 8.78775C37.9802 8.78775 37.2828 8.93575 36.6491 9.20117C36.2242 4.39917 32.1972 0.631836 27.2849 0.631836C26.0823 0.631836 24.9111 0.868458 23.876 1.26859C23.4741 1.42456 23.3678 1.58408 23.3638 1.89515C23.3638 1.89559 23.3638 18.8078 23.3638 18.8078C23.3678 19.1335 23.6203 19.3874 23.9389 19.4189C23.9527 19.4207 38.7105 19.4189 38.7105 19.4189C41.6536 19.4189 44.0389 17.0598 44.0389 14.1162C44.0385 11.1735 41.6532 8.78775 38.7096 8.78775Z" fill="white"/>
</svg>
