<svg width="48" height="48" viewBox="0 0 48 48" fill="none" xmlns="http://www.w3.org/2000/svg">
<circle cx="24" cy="24" r="23.5" stroke="#01BFA3"/>
<path d="M20.9188 32.9999C29.2211 32.9999 33.7613 26.4601 33.7613 20.7892C33.7613 20.6035 33.7572 20.4185 33.7485 20.2346C34.6297 19.6287 35.3956 18.8727 36 18.0122C35.1913 18.3541 34.3208 18.584 33.408 18.688C34.3398 18.1565 35.0553 17.316 35.3927 16.3142C34.5206 16.8058 33.5547 17.1629 32.5266 17.3558C31.7029 16.5217 30.5302 16 29.2317 16C26.7393 16 24.7178 17.9219 24.7178 20.291C24.7178 20.6279 24.7575 20.9554 24.8349 21.2696C21.0835 21.0901 17.7569 19.3825 15.5309 16.7857C15.1434 17.4198 14.9198 18.1566 14.9198 18.9428C14.9198 20.4316 15.7167 21.7462 16.9284 22.515C16.1879 22.4934 15.4923 22.3001 14.8842 21.9784C14.8835 21.9964 14.8835 22.0139 14.8835 22.0331C14.8835 24.1116 16.4393 25.8469 18.5049 26.2402C18.1255 26.3383 17.7263 26.3911 17.3146 26.3911C17.0243 26.3911 16.7412 26.364 16.4662 26.3137C17.0409 28.0189 18.7073 29.2597 20.6828 29.2945C19.1379 30.4458 17.1918 31.1316 15.0767 31.1316C14.7129 31.1316 14.3533 31.1118 14 31.0721C15.9976 32.2895 18.3697 33 20.919 33" fill="#01BFA3"/>
</svg>
