<svg width="27" height="23" viewBox="0 0 27 23" fill="none" xmlns="http://www.w3.org/2000/svg">
<path d="M8.34773 22.2364C18.1397 22.2364 23.4944 14.0161 23.4944 6.88805C23.4944 6.65458 23.4897 6.42207 23.4794 6.19085C24.5187 5.42934 25.4221 4.47906 26.1349 3.39742C25.181 3.82721 24.1544 4.11616 23.0778 4.24688C24.1768 3.57879 25.0206 2.52239 25.4186 1.26307C24.39 1.88099 23.2509 2.32992 22.0382 2.5724C21.0668 1.52387 19.6836 0.868164 18.1522 0.868164C15.2125 0.868164 12.8284 3.2839 12.8284 6.26176C12.8284 6.68529 12.8752 7.09692 12.9664 7.49182C8.54196 7.26623 4.61846 5.11982 1.99311 1.85575C1.53611 2.65279 1.27239 3.57895 1.27239 4.56718C1.27239 6.43847 2.21225 8.09093 3.64131 9.05729C2.76794 9.03011 1.94757 8.78716 1.23034 8.38277C1.22955 8.40544 1.22955 8.42747 1.22955 8.45159C1.22955 11.0641 3.06451 13.2454 5.50071 13.7397C5.05324 13.863 4.58244 13.9294 4.09688 13.9294C3.75445 13.9294 3.42059 13.8954 3.09625 13.8322C3.77397 15.9755 5.73937 17.5352 8.06941 17.5789C6.2473 19.0261 3.952 19.8881 1.45741 19.8881C1.02834 19.8881 0.604191 19.8631 0.1875 19.8133C2.54357 21.3435 5.34124 22.2366 8.34789 22.2366" fill="white"/>
</svg>
