<svg width="20" height="19" viewBox="0 0 20 19" fill="none" xmlns="http://www.w3.org/2000/svg">
<path d="M11.0416 9.39357L11.0415 9.39363C9.52373 9.94684 7.82847 9.48934 6.7898 8.25128C5.77767 7.0448 5.65937 5.25018 6.46704 3.90569L6.46729 3.90526C7.2709 2.56142 8.88958 1.82253 10.4285 2.12885C12.1945 2.48225 13.4829 4.04125 13.4983 5.84124C13.4982 5.84205 13.4982 5.84287 13.4982 5.84368L13.4981 5.86462C13.4768 7.4122 12.5026 8.86214 11.0416 9.39357ZM14.9191 5.78936C14.8824 3.61984 13.4997 1.68254 11.4565 0.938821L11.4563 0.938738C9.44032 0.207121 7.07077 0.854639 5.71373 2.51272L5.71364 2.51283C4.32746 4.2085 4.10662 6.64059 5.25614 8.53176C6.39413 10.4112 8.6245 11.367 10.7666 10.9373C13.1732 10.4569 14.9007 8.26465 14.9205 5.84313L14.9205 5.84262C14.9207 5.82461 14.9202 5.80685 14.9191 5.78936Z" fill="white" stroke="white" stroke-width="0.5"/>
<path d="M3.73848 9.46653L3.58848 9.26653L3.58523 9.26897C3.44024 9.37771 3.28698 9.49265 3.14275 9.61794C3.0579 9.69025 3.00463 9.78464 2.97268 9.8686C2.93999 9.95452 2.92249 10.048 2.92249 10.1351C2.92249 10.3093 2.9945 10.511 3.13284 10.6433L3.13275 10.6434L3.13874 10.6488C3.25494 10.753 3.43123 10.8548 3.64399 10.8456L3.64473 10.8456C3.82683 10.8372 3.97926 10.764 4.10959 10.6534C4.13382 10.6336 4.15638 10.6149 4.17817 10.5968C4.19661 10.5816 4.2145 10.5667 4.23238 10.5521L4.23269 10.5524C4.24929 10.5395 4.26659 10.5268 4.28716 10.512C4.28936 10.5104 4.29162 10.5087 4.29392 10.5071C4.31142 10.4944 4.33161 10.4799 4.35192 10.4645C4.47104 10.3777 4.60204 10.2572 4.65614 10.0541C4.70463 9.88446 4.68753 9.6605 4.57758 9.49478L4.57728 9.49433C4.49426 9.3698 4.35621 9.22568 4.15086 9.17742C4.00883 9.14321 3.77208 9.12582 3.58642 9.26809L3.73848 9.46653ZM3.73848 9.46653C3.59091 9.57721 3.44335 9.68789 3.30566 9.80757C3.21838 9.88136 3.17249 10.0244 3.17249 10.1351C3.17249 10.2503 3.22288 10.3835 3.30566 10.4627L3.73848 9.46653Z" fill="white" stroke="white" stroke-width="0.5"/>
<path d="M17.3298 17.0869C17.8127 16.8864 17.8127 16.5071 17.8127 16.146C17.8127 15.8756 17.8132 15.6047 17.8137 15.3336C17.8147 14.7911 17.8157 14.248 17.8127 13.7067C17.8071 12.2684 16.9212 10.8881 15.3682 10.0547L17.3298 17.0869ZM17.3298 17.0869C17.1334 17.1703 16.9282 17.1698 16.7149 17.1694C16.6994 17.1694 16.6839 17.1693 16.6683 17.1693H14.3787H6.62018H3.65521C3.57727 17.1693 3.4967 17.1709 3.41487 17.1725C2.8666 17.1832 2.26149 17.1949 2.00877 16.7439M17.3298 17.0869L2.00877 16.7439M15.2772 10.2897L15.2496 10.2748C15.1107 10.2 14.9815 10.0815 14.9229 9.92196C14.8593 9.7489 14.8926 9.56262 15.021 9.41127C15.1282 9.2766 15.2942 9.19534 15.4499 9.161C15.61 9.12571 15.805 9.12974 15.9751 9.22137L15.9753 9.22148C16.4037 9.45282 16.813 9.71567 17.1769 10.0231L17.1776 10.0237C17.9373 10.6705 18.5069 11.4617 18.7912 12.3205C18.9767 12.8796 19.0146 13.4366 19.0146 13.9798C19.0146 14.2499 19.0166 14.5223 19.0186 14.7959C19.0227 15.3481 19.0268 15.9056 19.0145 16.4603L19.0145 16.4606C18.9918 17.4245 18.0346 18.119 16.9263 18.1388M15.2772 10.2897L4.15402 9.57457C3.8588 9.34949 3.46409 9.3952 3.20472 9.56376L3.20472 9.56376L3.20387 9.56432C1.60311 10.6139 0.75 12.1618 0.75 13.7899V16.3723C0.75 17.1615 1.31342 17.8449 2.25547 18.0711C2.5398 18.1394 2.826 18.1391 3.07876 18.1389C3.09452 18.1388 3.11014 18.1388 3.12563 18.1388H5.63979H13.7318H16.4759C16.52 18.1388 16.5666 18.1392 16.6146 18.1396C16.7156 18.1403 16.8228 18.1412 16.9263 18.1388M15.2772 10.2897C16.7475 11.0892 17.5575 12.3855 17.5627 13.7076L17.5627 13.7081C17.5657 14.2485 17.5647 14.7899 17.5637 15.3319C17.5632 15.6032 17.5627 15.8746 17.5627 16.146C17.5627 16.336 17.56 16.4748 17.5175 16.5908C17.4825 16.6867 17.4144 16.7811 17.234 16.856L17.2322 16.8568C17.0843 16.9195 16.928 16.9195 16.6974 16.9194C16.6879 16.9193 16.6782 16.9193 16.6683 16.9193H14.3787H6.62018H3.65521C3.56568 16.9193 3.47794 16.921 3.39202 16.9227C3.16543 16.9271 2.95139 16.9312 2.75013 16.9034C2.48178 16.8662 2.31586 16.7806 2.22686 16.6217L2.22619 16.6205C2.18365 16.5456 2.16486 16.4379 2.16486 16.2878C2.16486 16.2149 2.16907 16.1401 2.1738 16.0606L2.17451 16.0488C2.17888 15.9755 2.18364 15.8958 2.18364 15.8212V14.3263C2.18364 14.2397 2.18273 14.1555 2.18183 14.0728C2.1788 13.7915 2.17597 13.5297 2.21002 13.2634L2.21002 13.2634L2.21021 13.2619C2.2962 12.5543 2.648 11.8574 3.20109 11.2591L3.2011 11.2591L3.20237 11.2577C3.46066 10.9741 3.78054 10.7192 4.13831 10.4876L4.13868 10.4873C4.31013 10.3759 4.39336 10.1984 4.3877 10.019C4.38225 9.84598 4.29538 9.68233 4.15403 9.57457L15.2772 10.2897ZM16.9263 18.1388C16.926 18.1388 16.9258 18.1388 16.9255 18.1388L16.9211 17.8889L16.927 18.1388C16.9268 18.1388 16.9265 18.1388 16.9263 18.1388ZM2.00877 16.7439C1.89462 16.5428 1.91054 16.2756 1.92479 16.0365C1.9293 15.9609 1.93364 15.8881 1.93364 15.8212V14.3263C1.93364 14.2462 1.93275 14.166 1.93187 14.0859C1.92872 13.8014 1.92558 13.5168 1.96204 13.2317C2.05549 12.4626 2.43572 11.7187 3.01752 11.0894M2.00877 16.7439L3.01752 11.0894M3.01752 11.0894C3.29423 10.7856 3.63231 10.5173 4.00246 10.2777L3.01752 11.0894Z" fill="white" stroke="white" stroke-width="0.5"/>
</svg>
